<?xml version="1.0" encoding="UTF-8"?>
<svg version="1.1" xmlns="http://www.w3.org/2000/svg" width="500" height="500">
<path d="M0 0 C165 0 330 0 500 0 C500 165 500 330 500 500 C335 500 170 500 0 500 C0 335 0 170 0 0 Z " fill="#FEFEFE" transform="translate(0,0)"/>
<path d="M0 0 C3.36205563 0.60787167 5.34514405 1.8167264 8 3.9375 C10.59271381 5.99850492 13.0415285 7.53172155 16 9 C17.93068702 10.24943031 19.84607082 11.52266197 21.75 12.8125 C26.44625529 15.97211293 31.17976011 19.03369853 36 22 C35.68499315 31.76521225 31.54722699 37.93019166 25.5 45.375 C17.77866826 55.09499505 13.75577259 66.18795643 12.51953125 78.46484375 C12.4412207 79.23546143 12.36291016 80.0060791 12.28222656 80.80004883 C12.13781622 82.32807073 12.01286398 83.85807975 11.90917969 85.3894043 C11.72265625 87.5078125 11.72265625 87.5078125 11 91 C8.93359375 92.4921875 8.93359375 92.4921875 7 93 C8.4540625 93.4640625 8.4540625 93.4640625 9.9375 93.9375 C13 95 13 95 14 96 C14.45831658 100.88635981 13.50093753 103.55783031 10.9375 107.6875 C10.30585938 108.72519531 9.67421875 109.76289063 9.0234375 110.83203125 C7.69802072 112.90715288 6.349726 114.96787887 4.9765625 117.01171875 C4.02910156 118.42904297 4.02910156 118.42904297 3.0625 119.875 C2.47597656 120.71804687 1.88945312 121.56109375 1.28515625 122.4296875 C-0.24043586 125.48087173 -0.24054999 127.63230019 0 131 C0.89203125 131.15855469 1.7840625 131.31710938 2.703125 131.48046875 C3.87359375 131.71378906 5.0440625 131.94710937 6.25 132.1875 C7.99023438 132.51814453 7.99023438 132.51814453 9.765625 132.85546875 C13.67704491 134.23958232 14.99124426 135.38423967 17 139 C17.171875 142.33203125 17.171875 142.33203125 16.75 145.8125 C16.62109375 146.97394531 16.4921875 148.13539063 16.359375 149.33203125 C16.24078125 150.21246094 16.1221875 151.09289062 16 152 C17.98 152 19.96 152 22 152 C21.484375 152.37125 20.96875 152.7425 20.4375 153.125 C18.72528882 154.98722858 18.72528882 154.98722858 18.875 157.875 C20.10419195 161.28942208 20.59764342 161.64870259 23.5 163.5 C26.89583333 165.69444444 26.89583333 165.69444444 27.9375 168.75 C28 172 28 172 27.86328125 174.20703125 C27.66730171 178.28205419 27.6800317 180.44005547 29.75 184.0625 C35.2681977 187.35219478 41.15622616 186.87607381 47.3137207 185.47265625 C53.39767338 183.81003404 58.49461585 181.35632581 63.8125 178 C64.58295654 177.52087158 65.35341309 177.04174316 66.1472168 176.5480957 C75.56225421 170.556353 83.99868354 163.7357045 91 155 C91 160.94248467 85.43134955 165.68608291 81.4375 169.75 C78.75918678 172.35093972 75.97864101 174.74345378 73 177 C73.59167969 177.46148437 74.18335938 177.92296875 74.79296875 178.3984375 C80.6365549 183.22201758 84.3564513 187.8531196 87 195 C87 195.66 87 196.32 87 197 C68.95844812 206.51281827 47.68692943 209.23617042 27.984375 203.390625 C9.25102594 197.19548982 -7.72009313 185.51744625 -16.7265625 167.62890625 C-17.14679688 166.76136719 -17.56703125 165.89382813 -18 165 C-18.37898437 164.30777344 -18.75796875 163.61554688 -19.1484375 162.90234375 C-30.06358013 141.60550532 -26.40095465 111.57352408 -22 89 C-21.79600586 87.93990723 -21.59201172 86.87981445 -21.38183594 85.78759766 C-18.08325269 68.9513791 -13.86492475 52.44787227 -9 36 C1.98120117 33.17724609 1.98120117 33.17724609 7 34 C10.82845222 37.91568278 12.3706605 42.87712174 14 48 C13.94199219 47.11957031 13.88398438 46.23914063 13.82421875 45.33203125 C13.4546408 35.8180388 13.4546408 35.8180388 16.125 31.8125 C19.04844683 29.96945743 21.65740871 28.85508149 25 28 C24.33613281 27.98582031 23.67226562 27.97164062 22.98828125 27.95703125 C18.52400813 27.71589533 15.75158512 27.54369988 12.0625 24.875 C9.74119141 21.63923651 8.38683842 18.72256629 7 15 C7.020625 15.88042969 7.04125 16.76085937 7.0625 17.66796875 C6.89758758 26.95459967 6.89758758 26.95459967 4.36328125 29.90625 C2.28065708 31.20739424 0.30301865 32.15262338 -2 33 C-3.155 33.433125 -4.31 33.86625 -5.5 34.3125 C-6.7375 34.6528125 -6.7375 34.6528125 -8 35 C-7.0401885 27.99337606 -4.99913066 21.22788846 -3.171875 14.41015625 C-1.90228885 9.62431435 -0.67327021 4.91487252 0 0 Z " fill="#FD049D" transform="translate(190,100)"/>
<path d="M0 0 C2.9375 1 2.9375 1 4.625 3.015625 C6.40657576 7.06658893 6.0990491 10.39608389 5.875 14.75 C5.69644483 21.88153621 6.26665422 26.77246291 9.9375 33 C13.74431117 40.53813316 16.40283795 45.9629008 13.9375 54.4375 C13.6075 55.283125 13.2775 56.12875 12.9375 57 C13.80761719 56.94779297 13.80761719 56.94779297 14.6953125 56.89453125 C19.91093867 56.71379173 23.47267444 56.98883858 27.9375 60 C30.9851749 62.9262096 32.19326764 64.97688875 32.29296875 69.13671875 C32.25737045 70.65426129 32.20086744 72.17143709 32.125 73.6875 C31.66377793 78.9990974 31.66377793 78.9990974 32.9375 84 C33.34997405 87.71226642 33.44172834 91.29501783 32.9375 95 C29.70151009 98.57662043 27.0957164 99.93378051 22.31640625 100.20703125 C17.86817018 100.14780175 14.06385531 99.10545393 9.875 97.6875 C9.20662109 97.47416016 8.53824219 97.26082031 7.84960938 97.04101562 C3.42705368 95.60121372 -0.81149314 93.88503685 -5.0625 92 C-3.91709775 93.31287621 -2.77116567 94.62529021 -1.625 95.9375 C-0.66787109 97.03384766 -0.66787109 97.03384766 0.30859375 98.15234375 C1.16291459 99.12139353 2.02401175 100.08651175 2.9375 101 C2.97813832 102.66617115 2.980221 104.33388095 2.9375 106 C-0.40096147 105.43885435 -1.68326279 104.63645747 -3.6875 101.9375 C-9.2983594 95.06242164 -15.4270638 90.07250469 -24.0625 88 C-26.5 86 -26.5 86 -28.0625 84 C-28.0625 83.34 -28.0625 82.68 -28.0625 82 C-28.701875 81.855625 -29.34125 81.71125 -30 81.5625 C-32.0625 81 -32.0625 81 -33.0625 80 C-33.10313832 78.33382885 -33.105221 76.66611905 -33.0625 75 C-31.0825 74.505 -31.0825 74.505 -29.0625 74 C-29.82433594 73.12859375 -30.58617187 72.2571875 -31.37109375 71.359375 C-58.53892143 40.11791956 -58.53892143 40.11791956 -58.34765625 19.92578125 C-57.81742266 14.48543933 -56.22628969 9.00546361 -52.140625 5.21875 C-50.0625 4 -50.0625 4 -46.5625 4 C-42.32086898 5.21189458 -41.52258218 6.42441497 -39.0625 10 C-38.20510235 11.93045974 -37.41391169 13.89153545 -36.6875 15.875 C-33.95778597 22.6617202 -31.08991657 27.26203864 -24.6875 30.9375 C-23.388125 31.4634375 -23.388125 31.4634375 -22.0625 32 C-21.96195312 31.15050781 -21.86140625 30.30101563 -21.7578125 29.42578125 C-19.69902288 19.28219418 -12.88421729 8.02066704 -5.046875 1.26171875 C-3.0625 0 -3.0625 0 0 0 Z " fill="#FD14A3" transform="translate(301.0625,76)"/>
<path d="M0 0 C2.9375 1 2.9375 1 4.625 3.015625 C6.40657576 7.06658893 6.0990491 10.39608389 5.875 14.75 C5.69644483 21.88153621 6.26665422 26.77246291 9.9375 33 C13.74431117 40.53813316 16.40283795 45.9629008 13.9375 54.4375 C13.6075 55.283125 13.2775 56.12875 12.9375 57 C13.80761719 56.94779297 13.80761719 56.94779297 14.6953125 56.89453125 C19.91093867 56.71379173 23.47267444 56.98883858 27.9375 60 C30.9851749 62.9262096 32.19326764 64.97688875 32.29296875 69.13671875 C32.25737045 70.65426129 32.20086744 72.17143709 32.125 73.6875 C31.66377793 78.9990974 31.66377793 78.9990974 32.9375 84 C33.34997405 87.71226642 33.44172834 91.29501783 32.9375 95 C29.70313572 98.57482368 27.09731388 99.93361756 22.3203125 100.20703125 C17.85421377 100.14755048 14.02145697 99.10265027 9.8125 97.6875 C9.13574219 97.47416016 8.45898438 97.26082031 7.76171875 97.04101562 C3.61503614 95.69755462 -0.2016939 94.05067738 -4.0625 92 C-1.0625 91 -1.0625 91 1.375 91.9375 C6.54589215 93.4796959 11.57942223 93.15606052 16.9375 93 C16.31875 92.38125 15.7 91.7625 15.0625 91.125 C13.6875 89.75 12.3125 88.375 10.9375 87 C15.6875 87.875 15.6875 87.875 17.9375 89 C17.9375 88.01 17.9375 87.02 17.9375 86 C20.15939824 83.77810176 22.02232708 83.07401108 24.9375 82 C25.34928651 77.91086113 25.34928651 77.91086113 23.6875 74.3515625 C20.51210188 71.89913449 16.84296502 71.97488447 12.9375 72 C10.15128989 72.45977065 7.6461878 73.16276923 4.9375 74 C5.5975 74.99 6.2575 75.98 6.9375 77 C6.29683594 76.95359375 5.65617187 76.9071875 4.99609375 76.859375 C-1.33884197 76.59502597 -4.90012442 77.26551554 -10.0625 81 C-10.5575 81.99 -10.5575 81.99 -11.0625 83 C-12.7125 83 -14.3625 83 -16.0625 83 C-16.5575 83.99 -16.5575 83.99 -17.0625 85 C-17 82.75 -17 82.75 -16.0625 80 C-14.33880619 79.02432426 -12.61139089 78.05341382 -10.8515625 77.14453125 C-7.69664666 75.12621173 -6.22294536 72.50880225 -5.0625 69 C-4.27031732 64.23873707 -4.30745168 61.10897722 -7.0625 57.0625 C-7.7225 56.381875 -8.3825 55.70125 -9.0625 55 C-9.0625 54.34 -9.0625 53.68 -9.0625 53 C-7.0825 52.34 -5.1025 51.68 -3.0625 51 C-1.00363782 52.67719321 -0.11827249 53.4598875 0.16015625 56.15625 C0.10730469 56.9296875 0.05445313 57.703125 0 58.5 C-0.23821818 62.1648951 -0.22334241 62.75873639 1.9375 66 C4.4125 65.505 4.4125 65.505 6.9375 65 C5.64450306 67.88437779 4.27808637 69.87219421 1.9375 72 C3.030625 71.690625 4.12375 71.38125 5.25 71.0625 C10.42026323 69.7536901 15.63011392 69.37073653 20.9375 69 C21.2675 67.35 21.5975 65.7 21.9375 64 C19.29424154 61.46247188 18.05409328 61.00804092 14.3125 60.75 C11.07033395 60.7752835 11.07033395 60.7752835 8.9375 62 C8.9375 58.7 8.9375 55.4 8.9375 52 C6.9575 52 4.9775 52 2.9375 52 C3.68 51.38125 3.68 51.38125 4.4375 50.75 C6.37136092 48.87797662 6.37136092 48.87797662 5.9375 45 C3.9575 45.495 3.9575 45.495 1.9375 46 C2.4634375 44.7315625 2.4634375 44.7315625 3 43.4375 C4.06027509 39.54982467 3.72064872 36.91574361 2.9375 33 C-0.94047662 32.56613908 -0.94047662 32.56613908 -2.8125 34.5 C-3.225 34.995 -3.6375 35.49 -4.0625 36 C-4.0625 33.69 -4.0625 31.38 -4.0625 29 C-9.48052621 37.26384796 -9.48052621 37.26384796 -14.0625 46 C-15.0625 43 -15.0625 43 -13.734375 40.0390625 C-13.10015625 38.91242188 -12.4659375 37.78578125 -11.8125 36.625 C-11.18859375 35.50351563 -10.5646875 34.38203125 -9.921875 33.2265625 C-8.76833209 31.22482627 -7.5802015 29.24210236 -6.33984375 27.29296875 C-4.72555597 24.3951494 -4.83477397 22.26407311 -5.0625 19 C-6.3825 18.67 -7.7025 18.34 -9.0625 18 C-13.81192498 23.18402751 -13.81192498 23.18402751 -17.8125 28.9375 C-19.0625 31 -19.0625 31 -22.0625 32 C-20.74920308 20.90432472 -13.50753129 8.55821497 -5.046875 1.26171875 C-3.0625 0 -3.0625 0 0 0 Z " fill="#FD0EA1" transform="translate(301.0625,76)"/>
<path d="M0 0 C0.33 0 0.66 0 1 0 C1.06316406 0.99257812 1.12632812 1.98515625 1.19140625 3.0078125 C2.36547333 17.23588371 7.20024156 29.15667773 18 39 C24.99909476 44.90119754 33.29347348 49.04031029 41.2355957 53.51342773 C47.8658638 57.27537006 54.03844594 61.23075675 60 66 C60.64710938 66.4846875 61.29421875 66.969375 61.9609375 67.46875 C73.67369149 76.67528152 77.83189152 90.03152172 81 104 C83.87691291 101.12308709 84.75349744 97.58026161 86.0625 93.8125 C86.33126953 93.06935547 86.60003906 92.32621094 86.87695312 91.56054688 C91.23711822 79.15419184 91.41901906 65.94987533 87.55859375 53.390625 C87 51 87 51 88 48 C88.81898266 50.20611566 89.63027543 52.4145834 90.4375 54.625 C90.88996094 55.85476562 91.34242188 57.08453125 91.80859375 58.3515625 C97.93478379 77.11176413 92.87744707 97.36874535 84.26171875 114.4453125 C81.02795534 120.16713779 77.54033488 125.2434587 73 130 C72.67 130 72.34 130 72 130 C72.01571045 129.30028076 72.0314209 128.60056152 72.04760742 127.87963867 C72.1107233 124.64901104 72.1492308 121.41851382 72.1875 118.1875 C72.21263672 117.08728516 72.23777344 115.98707031 72.26367188 114.85351562 C72.40057965 99.38293749 67.32798636 86.72276348 56.65234375 75.4609375 C48.23179577 67.64805793 38.27649985 61.87547951 28.48510742 55.97167969 C14.4236408 47.46130931 2.40892304 39.3150476 -2.6171875 22.99609375 C-4.00556551 15.75669414 -3.22746586 7.99131619 -1 1 C-0.67 0.67 -0.34 0.34 0 0 Z " fill="#FD099F" transform="translate(224,152)"/>
<path d="M0 0 C3.36205563 0.60787167 5.34514405 1.8167264 8 3.9375 C10.59271381 5.99850492 13.0415285 7.53172155 16 9 C17.93068702 10.24943031 19.84607082 11.52266197 21.75 12.8125 C26.44625529 15.97211293 31.17976011 19.03369853 36 22 C35.6506548 32.82970122 30.20782718 39.66521869 23.61328125 47.8828125 C21.40844811 50.77632234 19.70658218 53.79162549 18 57 C17.01 57 16.02 57 15 57 C14.10499271 52.31221592 13.72284272 47.70066148 13.625 42.9375 C13.58761719 42.24333984 13.55023438 41.54917969 13.51171875 40.83398438 C13.44437928 36.89462529 13.83799245 35.20380714 16.31640625 32.0859375 C19.16014564 29.87551998 21.52876078 28.88799143 25 28 C24.33613281 27.98582031 23.67226562 27.97164062 22.98828125 27.95703125 C18.52400813 27.71589533 15.75158512 27.54369988 12.0625 24.875 C9.74119141 21.63923651 8.38683842 18.72256629 7 15 C7.020625 15.88042969 7.04125 16.76085937 7.0625 17.66796875 C6.89758758 26.95459967 6.89758758 26.95459967 4.36328125 29.90625 C2.28065708 31.20739424 0.30301865 32.15262338 -2 33 C-3.155 33.433125 -4.31 33.86625 -5.5 34.3125 C-6.7375 34.6528125 -6.7375 34.6528125 -8 35 C-7.0401885 27.99337606 -4.99913066 21.22788846 -3.171875 14.41015625 C-1.90228885 9.62431435 -0.67327021 4.91487252 0 0 Z " fill="#FD0BA0" transform="translate(190,100)"/>
<path d="M0 0 C0.70382812 -0.020625 1.40765625 -0.04125 2.1328125 -0.0625 C7.73040741 -0.10411781 11.84827483 1.08844735 16.125 4.9375 C17.78852331 8.35696458 17.91784111 11.56976922 17.25 15.25 C15.3125 18.5 15.3125 18.5 13.25 21.25 C12.3038421 23.12307232 12.3038421 23.12307232 12.25 25.25 C13.55828619 27.53124877 13.55828619 27.53124877 15.5 29.6875 C18.0448795 32.76573748 20.32201779 35.73426774 22.25 39.25 C19.14608238 41.08935859 16.85570855 41.80472439 13.25 41.25 C10.84084504 38.48674353 9.23650808 35.4648922 7.625 32.1875 C6.98691406 30.90166016 6.98691406 30.90166016 6.3359375 29.58984375 C5.25 27.25 5.25 27.25 4.25 24.25 C2.27 24.25 0.29 24.25 -1.75 24.25 C-1.79898437 25.13042969 -1.84796875 26.01085937 -1.8984375 26.91796875 C-2.01058594 28.66013672 -2.01058594 28.66013672 -2.125 30.4375 C-2.19460938 31.58605469 -2.26421875 32.73460937 -2.3359375 33.91796875 C-2.72509574 37.04959117 -3.4309851 39.40285809 -4.75 42.25 C-6.07 41.59 -7.39 40.93 -8.75 40.25 C-9.08 27.38 -9.41 14.51 -9.75 1.25 C-6.65176359 -0.29911821 -3.39766609 0.02435603 0 0 Z " fill="#FD0DA0" transform="translate(304.75,308.75)"/>
<path d="M0 0 C3.82911552 1.98717892 6.14748692 4.60497859 8.375 8.25 C9.33143992 12.45833565 9.68281754 16.70134303 10 21 C10.39832031 20.57847656 10.79664063 20.15695312 11.20703125 19.72265625 C11.73683594 19.17480469 12.26664062 18.62695312 12.8125 18.0625 C13.33457031 17.51722656 13.85664063 16.97195313 14.39453125 16.41015625 C16.89576869 14.2132056 19.03752248 13.99716811 22.3125 13.75 C27.76942803 14.11996122 30.70853127 15.57258719 34.375 19.625 C36.48590266 24.00918246 37.00802545 27.2276295 36 32 C32.42626323 40.45970502 25.86105843 44.37333937 17.77734375 47.99609375 C11.68604131 50.30658778 5.46325632 50.68285206 -1 51 C1.98147968 49.3436224 5.02223792 48.33504304 8.28027344 47.35131836 C16.66468679 44.79172365 24.18127348 41.71569901 29 34 C29.39642587 31.7445175 29.39642587 31.7445175 29.25 29.4375 C29.23453125 28.67308594 29.2190625 27.90867187 29.203125 27.12109375 C29.06206055 24.81226263 29.06206055 24.81226263 28 22 C22.74982761 20.24994254 18.64303424 20.17848288 13.75 22.625 C10.82325039 25.15264739 9.01378661 27.71827368 7 31 C6.67 31 6.34 31 6 31 C5.96261719 30.27554687 5.92523438 29.55109375 5.88671875 28.8046875 C5.45299205 22.42635372 4.83464853 17.48686855 0.67578125 12.37109375 C-1.46399876 10.62036465 -2.69768397 10.56712026 -5.4375 10.5625 C-6.19933594 10.54316406 -6.96117187 10.52382813 -7.74609375 10.50390625 C-10.94801998 11.20866298 -12.0688596 12.36935763 -14 15 C-16.14872381 25.49315429 -13.0343128 33.64217895 -8.43359375 42.83203125 C-7.96050781 43.87746094 -7.48742187 44.92289062 -7 46 C-7.33 46.66 -7.66 47.32 -8 48 C-16.09709765 36.04600081 -23.24823824 24.96903919 -21 10 C-19.3125 6.375 -19.3125 6.375 -17 4 C-16.34 3.21625 -15.68 2.4325 -15 1.625 C-10.14607964 -1.00420686 -5.3793285 -0.94636335 0 0 Z " fill="#FD0DA0" transform="translate(337,253)"/>
<path d="M0 0 C3.17097308 3.3378664 4.80345102 6.58389109 6.375 10.875 C8.99949065 17.4524272 12.09141664 22.06094443 18 26 C19.98 26 21.96 26 24 26 C22.35 31.28 20.7 36.56 19 42 C18.67 42 18.34 42 18 42 C17.67 47.28 17.34 52.56 17 58 C14.99706653 54.99559979 14.50728374 53.29006055 13.875 49.8125 C13.70742188 48.91144531 13.53984375 48.01039063 13.3671875 47.08203125 C13.24601562 46.39496094 13.12484375 45.70789063 13 45 C12.67 45.99 12.34 46.98 12 48 C10.1875 47.875 10.1875 47.875 8 47 C5.35264837 42.60539629 4.43312292 38.68546378 3.8125 33.625 C3.65394531 32.37976563 3.49539063 31.13453125 3.33203125 29.8515625 C3.22246094 28.91054687 3.11289062 27.96953125 3 27 C2.35872219 34.43882256 4.13100561 39.92901452 6.80859375 46.86328125 C7.71783723 49.25712556 8.46410401 51.50531179 9 54 C3.03179031 50.2525195 0.10440055 45.24335377 -1.61914062 38.41357422 C-2.63379254 31.98354295 -2.23692612 25.33407245 -1.99169922 18.85083008 C-1.9557666 17.75279053 -1.91983398 16.65475098 -1.8828125 15.5234375 C-1.83527832 14.53263184 -1.78774414 13.54182617 -1.73876953 12.52099609 C-1.78552772 9.95538462 -1.78552772 9.95538462 -3.38623047 8.15869141 C-4.93150471 6.82224086 -4.93150471 6.82224086 -6.9375 6.9375 C-10.02060729 8.52576739 -11.21241873 11.10288553 -13 14 C-13.33 14 -13.66 14 -14 14 C-14.6592672 8.7258624 -13.06928516 5.90460441 -10.2890625 1.63671875 C-7.36725336 -2.07309346 -4.2348387 -1.02220245 0 0 Z " fill="#FD14A3" transform="translate(258,81)"/>
<path d="M0 0 C0.33 0 0.66 0 1 0 C1 2.31 1 4.62 1 7 C1.66 6.01 2.32 5.02 3 4 C4.65 4.33 6.3 4.66 8 5 C9.28571429 12.42857143 9.28571429 12.42857143 8 16 C8.99 16.33 9.98 16.66 11 17 C10.125 21.875 10.125 21.875 9 23 C10.65 23.33 12.3 23.66 14 24 C14 26.97 14 29.94 14 33 C14.33 32.67 14.66 32.34 15 32 C19.26703842 31.58970784 21.34032715 31.55086104 24.9375 34 C25.618125 34.66 26.29875 35.32 27 36 C26.125 40.875 26.125 40.875 25 42 C23.33745302 42.18703654 21.66917374 42.32390345 20 42.4375 C14.83624478 42.85600042 10.02689424 43.76387847 5 45 C6.65 42.69 8.3 40.38 10 38 C8.02 38.495 8.02 38.495 6 39 C3.46247188 36.35674154 3.00804092 35.11659328 2.75 31.375 C3 28 3 28 4 26 C0.56905354 23.83977445 -1.13877962 24.1871115 -5 25 C-5.66 24.34 -6.32 23.68 -7 23 C-6.625 20.375 -6.625 20.375 -6 18 C-7.65 18.33 -9.3 18.66 -11 19 C-9.92424145 16.76689448 -8.83977517 14.53875499 -7.75 12.3125 C-7.44964844 11.68666016 -7.14929688 11.06082031 -6.83984375 10.41601562 C-4.93891799 6.55349627 -2.89522101 3.23547134 0 0 Z " fill="#FEDFF2" transform="translate(297,104)"/>
<path d="M0 0 C1.67542976 0.28604898 3.34385343 0.61781233 5 1 C5.04941382 6.35683849 5.08572607 11.7135445 5.10986328 17.07055664 C5.11992491 18.89317129 5.1335756 20.71576979 5.15087891 22.53833008 C5.17512021 25.15710435 5.18648138 27.77566531 5.1953125 30.39453125 C5.20563507 31.21025101 5.21595764 32.02597076 5.22659302 32.8664093 C5.2273686 36.77130756 5.21650661 38.67524008 3 42 C1.515 41.505 1.515 41.505 0 41 C-1.52056499 37.95887002 -1.3741161 34.71802203 -1.5625 31.375 C-1.706875 28.94125 -1.85125 26.5075 -2 24 C-6.95 24.33 -11.9 24.66 -17 25 C-17.33 30.28 -17.66 35.56 -18 41 C-19.65 41 -21.3 41 -23 41 C-25.55781522 37.16327717 -25.25306456 34.05464013 -25.1953125 29.61328125 C-25.1924826 28.79627243 -25.18965271 27.97926361 -25.18673706 27.13749695 C-25.17554541 24.52901541 -25.1504429 21.9208777 -25.125 19.3125 C-25.11496888 17.54362475 -25.10584326 15.77474412 -25.09765625 14.00585938 C-25.07560942 9.67044051 -25.0410867 5.33527855 -25 1 C-19.125 1.875 -19.125 1.875 -18 3 C-17.92686433 5.53049402 -17.90752473 8.03304837 -17.9375 10.5625 C-17.94201172 11.27341797 -17.94652344 11.98433594 -17.95117188 12.71679688 C-17.96299136 14.47790013 -17.98092737 16.23896036 -18 18 C-13.97620653 18.03940067 -10.05735135 17.99167401 -6.0625 17.5 C-5.29035156 17.4071875 -4.51820313 17.314375 -3.72265625 17.21875 C-3.15417969 17.1465625 -2.58570313 17.074375 -2 17 C-1.93941406 15.85660156 -1.87882812 14.71320313 -1.81640625 13.53515625 C-1.73201572 12.04425695 -1.64736698 10.55337225 -1.5625 9.0625 C-1.52318359 8.30775391 -1.48386719 7.55300781 -1.44335938 6.77539062 C-1.11328125 1.11328125 -1.11328125 1.11328125 0 0 Z " fill="#FD0B9F" transform="translate(250,309)"/>
<path d="M0 0 C1.91760374 3.0848408 2.1064611 4.74470746 1.4375 8.3125 C-0.875 10.6875 -0.875 10.6875 -3.5625 12.3125 C-4.5525 12.3125 -5.5425 12.3125 -6.5625 12.3125 C-6.5625 13.3025 -6.5625 14.2925 -6.5625 15.3125 C-5.5725 15.6425 -4.5825 15.9725 -3.5625 16.3125 C-4.738125 16.065 -4.738125 16.065 -5.9375 15.8125 C-8.44458039 15.2501293 -8.44458039 15.2501293 -10.5625 15.3125 C-9.5725 15.9725 -8.5825 16.6325 -7.5625 17.3125 C-7.5625 17.9725 -7.5625 18.6325 -7.5625 19.3125 C-13.92921316 21.43473772 -20.26192084 20.3607892 -26.58203125 18.75 C-28.71269299 18.20464663 -28.71269299 18.20464663 -31.5625 18.3125 C-32.91823748 17.00195377 -34.24862831 15.66501497 -35.5625 14.3125 C-36.47 13.77625 -37.3775 13.24 -38.3125 12.6875 C-39.055 12.23375 -39.7975 11.78 -40.5625 11.3125 C-40.5625 10.6525 -40.5625 9.9925 -40.5625 9.3125 C-38.9125 9.3125 -37.2625 9.3125 -35.5625 9.3125 C-35.2325 8.3225 -34.9025 7.3325 -34.5625 6.3125 C-29.15436253 2.36906643 -25.16244499 1.77372898 -18.5625 2.3125 C-19.8825 1.6525 -21.2025 0.9925 -22.5625 0.3125 C-14.93138461 -2.21218677 -7.20138416 -4.74237494 0 0 Z " fill="#FE9AD7" transform="translate(325.5625,149.6875)"/>
<path d="M0 0 C0.66 0 1.32 0 2 0 C2.35191406 0.9178125 2.70382813 1.835625 3.06640625 2.78125 C9.78089952 19.74332794 21.51761841 27.26758267 36.75 36.5 C48.23637861 43.75911408 57.32996739 53.0300458 62 66 C62.125 68.8125 62.125 68.8125 62 71 C60.17733366 68.75671836 58.36996713 66.51335675 56.6796875 64.16796875 C48.06764173 52.23816764 37.92902159 45.75492816 24.8125 39.5 C15.97637264 35.14744303 8.08464586 29.57219142 3 21 C2.45730469 20.0925 1.91460937 19.185 1.35546875 18.25 C-0.23504248 14.43643994 -0.34054813 11.17488909 -0.1875 7.125 C-0.17396484 6.43664062 -0.16042969 5.74828125 -0.14648438 5.0390625 C-0.1114837 3.35902999 -0.05768954 1.6794065 0 0 Z " fill="#FD0CA0" transform="translate(232,132)"/>
<path d="M0 0 C0.33 0 0.66 0 1 0 C1.1959375 1.0415625 1.391875 2.083125 1.59375 3.15625 C5.19766585 20.95804469 12.265897 36.18073787 27.06640625 47.3046875 C40.88481618 56.29089273 55.8574433 61.41343128 72.375 61.3125 C73.74700562 61.30839111 73.74700562 61.30839111 75.14672852 61.30419922 C82.0972311 61.19705051 88.40454808 60.28004662 95 58 C98.83274579 56.69960411 100.9133463 56 105 56 C105 57.32 105 58.64 105 60 C89.36186736 68.36741642 68.34394267 69.88427751 51.18359375 65.17578125 C31.70106006 57.98039151 15.6041504 46.8735156 6 28 C1.99194274 18.94520477 0.18373102 9.90477239 0 0 Z " fill="#FEEFF9" transform="translate(168,236)"/>
<path d="M0 0 C1.65 0.33 3.3 0.66 5 1 C6.125 7.625 6.125 7.625 5 11 C5.598125 11.04125 6.19625 11.0825 6.8125 11.125 C10.14725561 12.45890224 10.56983126 14.78399228 12 18 C12.73292791 20.17270089 13.42056203 22.36119853 14.0625 24.5625 C14.97325999 27.66786238 15.86524475 30.67753306 17.11328125 33.6640625 C18.31218004 36.82239498 18.13116093 39.65539635 18 43 C13.92798692 40.1385854 11.90178748 37.60432758 10 33 C10 32.34 10 31.68 10 31 C5.20095892 30.83765084 0.68683561 30.88967904 -4 32 C-6.0629835 34.20972291 -6.9211233 36.03161205 -7.91015625 38.87109375 C-9 41 -9 41 -11.62109375 42.28515625 C-12.40613281 42.52105469 -13.19117188 42.75695312 -14 43 C-13.04490216 40.24883766 -12.08606018 37.49907912 -11.125 34.75 C-10.85558594 33.97269531 -10.58617187 33.19539063 -10.30859375 32.39453125 C-10.04433594 31.64042969 -9.78007812 30.88632812 -9.5078125 30.109375 C-9.26691895 29.41811523 -9.02602539 28.72685547 -8.77783203 28.01464844 C-7.97440978 25.93371924 -7.02798072 23.978378 -6 22 C-5.34 22 -4.68 22 -4 22 C-3.96261719 21.33355469 -3.92523438 20.66710937 -3.88671875 19.98046875 C-3.39004411 13.01728507 -2.05018792 6.66633432 0 0 Z " fill="#FD12A2" transform="translate(202,308)"/>
<path d="M0 0 C2.4375 0.6875 2.4375 0.6875 5 2 C6.21537818 5.29888363 6.10272046 7.69183862 5 11 C5.61133789 11.04930664 6.22267578 11.09861328 6.85253906 11.14941406 C9 12 9 12 10.28027344 14.42089844 C10.63637695 15.4730957 10.99248047 16.52529297 11.359375 17.609375 C11.75253906 18.75664062 12.14570313 19.90390625 12.55078125 21.0859375 C12.94652344 22.29507812 13.34226562 23.50421875 13.75 24.75 C14.16121094 25.94367188 14.57242187 27.13734375 14.99609375 28.3671875 C18.26572925 38.07833082 18.26572925 38.07833082 18 43 C15.35450458 41.99558992 14.22737251 41.48786622 13.0078125 38.87109375 C12.71648437 38.06800781 12.42515625 37.26492188 12.125 36.4375 C11.00931525 33.91810628 11.00931525 33.91810628 9 32 C4.31269552 30.89083125 -0.20068453 30.83764156 -5 31 C-5.29003906 31.93199219 -5.58007812 32.86398437 -5.87890625 33.82421875 C-7.09383057 37.26579881 -8.50618039 39.35503981 -11 42 C-12.485 42.495 -12.485 42.495 -14 43 C-11.96192707 35.8821847 -9.59655258 28.93292719 -7 22 C-6.34 22 -5.68 22 -5 22 C-3.30142762 14.67349113 -1.61831919 7.34467941 0 0 Z " fill="#FD10A2" transform="translate(273,308)"/>
<path d="M0 0 C2.375 0.3125 2.375 0.3125 5 1 C7.29827055 4.44740582 7.19137851 5.49795624 7.01953125 9.5234375 C6.98714355 10.62163818 6.95475586 11.71983887 6.92138672 12.85131836 C6.8854541 14.0141333 6.84952148 15.17694824 6.8125 16.375 C6.61263607 27.86402872 7.50498429 36.25747643 14 46 C14 46.99 14 47.98 14 49 C7.67712243 46.18983219 4.12457194 42.19214381 0.875 36.1875 C0.37419922 35.30094727 0.37419922 35.30094727 -0.13671875 34.39648438 C-4.35334723 26.81482101 -7.16866184 19.99893301 -7.0625 11.1875 C-7.05347656 10.21167969 -7.04445312 9.23585938 -7.03515625 8.23046875 C-7.02355469 7.49441406 -7.01195312 6.75835937 -7 6 C-6.34 6 -5.68 6 -5 6 C-3.2856382 4.04072937 -1.61594832 2.04119788 0 0 Z " fill="#FED6EF" transform="translate(250,87)"/>
<path d="M0 0 C2.0625 1.25 2.0625 1.25 3.0625 2.25 C3.10313832 3.91617115 3.105221 5.58388095 3.0625 7.25 C-2.18135089 8.9979503 -6.41072267 9.44392201 -11.9375 9.25 C-11.6075 11.89 -11.2775 14.53 -10.9375 17.25 C-9.926875 16.92 -8.91625 16.59 -7.875 16.25 C-4.1613643 15.19327439 -0.80922164 14.94633556 3.0625 15.25 C5.0625 17.25 5.0625 17.25 5.1875 19.875 C5.14625 20.65875 5.105 21.4425 5.0625 22.25 C3.50133181 22.58951619 1.93848662 22.92132544 0.375 23.25 C-0.49511719 23.435625 -1.36523438 23.62125 -2.26171875 23.8125 C-4.88895318 24.24206242 -7.28125689 24.39886126 -9.9375 24.25 C-10.2675 23.92 -10.5975 23.59 -10.9375 23.25 C-10.97488281 24.26320313 -11.01226562 25.27640625 -11.05078125 26.3203125 C-11.11648388 27.67190939 -11.18292971 29.02347029 -11.25 30.375 C-11.27255859 31.04015625 -11.29511719 31.7053125 -11.31835938 32.390625 C-11.56739877 37.00917371 -12.62150178 40.26375105 -14.9375 44.25 C-17.80570493 41.38179507 -17.92839648 39.54967216 -18.05102539 35.51293945 C-18.05086731 33.96304437 -18.04523287 32.41314359 -18.03515625 30.86328125 C-18.0337413 30.04627243 -18.03232635 29.22926361 -18.03086853 28.38749695 C-18.02527294 25.77912732 -18.01272129 23.17084366 -18 20.5625 C-17.99498443 18.79362103 -17.99042162 17.02474072 -17.98632812 15.25585938 C-17.97530496 10.92053981 -17.95804338 6.58528448 -17.9375 2.25 C-16.27485107 2.27247803 -16.27485107 2.27247803 -14.57861328 2.29541016 C-11.28623723 2.25434928 -9.68755708 2.00839567 -6.8125 0.625 C-3.85882046 -0.60235422 -3.23963594 -0.82714109 0 0 Z " fill="#FD12A2" transform="translate(180.9375,307.75)"/>
<path d="M0 0 C3.875 0.875 3.875 0.875 5 2 C5.65868416 7.44024325 3.73654979 10.73518073 0.9375 15.1875 C-6.1962268 27.17074841 -10.80192846 40.44626823 -14 54 C-16.8063213 51.1936787 -16.28589318 49.15868426 -16.32958984 45.32226562 C-16.3239502 44.43216797 -16.31831055 43.54207031 -16.3125 42.625 C-16.30686035 41.71685547 -16.3012207 40.80871094 -16.29541016 39.87304688 C-16.01792358 24.45468389 -10.97923509 11.04420097 0 0 Z " fill="#FEE1F3" transform="translate(292,93)"/>
<path d="M0 0 C0.33 0 0.66 0 1 0 C1.15855469 0.71542969 1.31710938 1.43085938 1.48046875 2.16796875 C4.48820924 15.01318091 8.48872562 25.77659306 17 36 C17.53238281 36.64582031 18.06476563 37.29164063 18.61328125 37.95703125 C29.35058167 49.76006869 47.82045825 58.054283 63.60620117 59.18701172 C66.24069794 59.26628543 68.86450714 59.2733574 71.5 59.25 C72.37269531 59.25773437 73.24539062 59.26546875 74.14453125 59.2734375 C81.97157638 59.25024626 89.49043062 58.09873161 96.875 55.4375 C99.56598228 54.47927199 102.21828961 53.65488698 105 53 C105 52.34 105 51.68 105 51 C105.66 51 106.32 51 107 51 C107.495 50.01 107.495 50.01 108 49 C108.495 51.475 108.495 51.475 109 54 C90.95844812 63.51281827 69.68692943 66.23617042 49.984375 60.390625 C31.24194398 54.19248641 14.32446129 42.52102742 5.27734375 24.65234375 C4.85582031 23.77707031 4.43429688 22.90179688 4 22 C3.60941406 21.23816406 3.21882812 20.47632813 2.81640625 19.69140625 C0.0354369 13.97666704 -1.10938462 8.26946354 -2 2 C-1.34 2 -0.68 2 0 2 C0 1.34 0 0.68 0 0 Z " fill="#FD19A5" transform="translate(168,243)"/>
<path d="M0 0 C0 0.99 0 1.98 0 3 C0.33 2.01 0.66 1.02 1 0 C4.16115776 1.36983503 4.9927092 1.9890638 7 5 C7.91139908 9.863993 7.38803345 14.00794453 4.9375 18.3125 C1.60338606 23.05393115 -2.29540499 25.3094651 -7.9375 26.75 C-8.9584375 26.87375 -8.9584375 26.87375 -10 27 C-12.94670396 22.57994406 -11.97711508 19.074019 -11 14 C-6.98435463 0 -6.98435463 0 0 0 Z " fill="#FEE9F6" transform="translate(290,131)"/>
<path d="M0 0 C2.475 0.99 2.475 0.99 5 2 C5.07432418 7.03536777 5.12868401 12.07041408 5.16479492 17.10620117 C5.1798534 18.81817184 5.20030455 20.53010411 5.22631836 22.24194336 C5.2628319 24.70696505 5.27975562 27.17147535 5.29296875 29.63671875 C5.30845261 30.39836838 5.32393646 31.16001801 5.33988953 31.94474792 C5.34132109 36.49587017 4.74412794 39.33799767 2 43 C0.02880859 41.51000977 0.02880859 41.51000977 -2 39 C-2.37364953 36.14580575 -2.51497078 33.68757192 -2.4609375 30.83984375 C-2.46002106 30.05356094 -2.45910461 29.26727814 -2.4581604 28.45716858 C-2.4521303 26.7987767 -2.43640183 25.14039542 -2.41162109 23.48217773 C-2.37507612 20.94278901 -2.3706021 18.40485882 -2.37109375 15.86523438 C-2.36126343 14.25259155 -2.34960679 12.6399586 -2.3359375 11.02734375 C-2.33371185 10.26791977 -2.33148621 9.50849579 -2.32919312 8.72605896 C-2.26129145 4.96046429 -2.13950549 3.20925824 0 0 Z " fill="#FD15A4" transform="translate(333,308)"/>
<path d="M0 0 C2.57159596 3.26028548 4.30201249 6.54130415 6.03515625 10.29296875 C6.89107469 12.1782875 6.89107469 12.1782875 9 13 C11.204364 13.22950319 13.41392173 13.41075933 15.625 13.5625 C16.81351563 13.64628906 18.00203125 13.73007813 19.2265625 13.81640625 C20.14179688 13.87699219 21.05703125 13.93757813 22 14 C18.95676256 16.02882496 16.27735257 17.00086276 12.83984375 18.12109375 C10.64627313 18.97627029 10.64627313 18.97627029 9 22 C8.85754103 24.76655324 8.81230555 27.42653306 8.875 30.1875 C8.88402344 30.93708984 8.89304688 31.68667969 8.90234375 32.45898438 C8.92587422 34.30612654 8.96174439 36.15310412 9 38 C7.0055541 35.00833114 5.78028422 32.20189821 4.4375 28.875 C3.15616662 25.16919291 3.15616662 25.16919291 1 22 C-4.15197086 21.82234583 -8.92193071 22.15365512 -14 23 C-11.57591145 20.14246515 -9.37965166 19.41481134 -5.875 18.25 C-3.10299284 17.12942597 -3.10299284 17.12942597 -1 15 C0.2096 9.94020001 0.22139459 5.17672655 0 0 Z " fill="#FEF1F9" transform="translate(196,113)"/>
<path d="M0 0 C8 0 8 0 11 2 C11.47730962 5.72301503 11.1387261 6.79191085 9 10 C9.99 10.33 10.98 10.66 12 11 C12.25 13.3125 12.25 13.3125 12 16 C10.5 17.8125 10.5 17.8125 8 19 C5.36 19 2.72 19 0 19 C0 12.73 0 6.46 0 0 Z " fill="#FD23A9" transform="translate(168,356)"/>
<path d="M0 0 C0 0.99 0 1.98 0 3 C0.33 2.01 0.66 1.02 1 0 C2.32 0.66 3.64 1.32 5 2 C3.44759763 6.96768758 0.48945219 11.17867057 -3 15 C-3.66 15 -4.32 15 -5 15 C-6.65 18.3 -8.3 21.6 -10 25 C-10.66 24.67 -11.32 24.34 -12 24 C-11.66042541 16.17280563 -10.49486522 7.59071279 -5.6171875 1.18359375 C-4 0 -4 0 0 0 Z " fill="#FEF6FB" transform="translate(290,131)"/>
<path d="M0 0 C0.33 0 0.66 0 1 0 C1 2.64 1 5.28 1 8 C1.66 8 2.32 8 3 8 C3.99 8 4.98 8 6 8 C6.125 10.875 6.125 10.875 6 14 C5.34 14.66 4.68 15.32 4 16 C2.68 16 1.36 16 0 16 C0 17.32 0 18.64 0 20 C-0.99 20 -1.98 20 -3 20 C-3 19.01 -3 18.02 -3 17 C-3.5775 17.350625 -4.155 17.70125 -4.75 18.0625 C-7.39786506 19.16577711 -8.33185326 18.80156509 -11 18 C-9.92318552 15.93408908 -8.8382534 13.87240822 -7.75 11.8125 C-7.14671875 10.66394531 -6.5434375 9.51539062 -5.921875 8.33203125 C-4.15906177 5.27577173 -2.32978803 2.64341334 0 0 Z " fill="#FE9AD7" transform="translate(297,104)"/>
<path d="M0 0 C2 3 2 3 2 5 C-14.17978007 13.53115677 -32.91976378 16.53682242 -51 13 C-50.01 12.67 -49.02 12.34 -48 12 C-48 11.34 -48 10.68 -48 10 C-47.35562988 10.01047363 -46.71125977 10.02094727 -46.04736328 10.03173828 C-43.07328331 10.07380674 -40.09926628 10.09948546 -37.125 10.125 C-35.60519531 10.15013672 -35.60519531 10.15013672 -34.0546875 10.17578125 C-25.7369479 10.22910009 -17.981914 9.26895391 -10.125 6.4375 C-7.43401772 5.47927199 -4.78171039 4.65488698 -2 4 C-2 3.34 -2 2.68 -2 2 C-1.34 2 -0.68 2 0 2 C0 1.34 0 0.68 0 0 Z " fill="#FD21A8" transform="translate(275,292)"/>
<path d="M0 0 C2.4375 1.5 2.4375 1.5 4 3 C3.39087948 8.48208469 3.39087948 8.48208469 1.75 10.65625 C-1.42578024 13.09479554 -5.09916409 12.71733073 -9 13 C-9 9.04 -9 5.08 -9 1 C-5.94306678 -0.52846661 -3.37015453 -0.23242445 0 0 Z " fill="#FEF7FB" transform="translate(311,314)"/>
<path d="M0 0 C0.30109336 8.88225399 0.30109336 8.88225399 -2 13 C-5 15 -5 15 -7.0625 14.8125 C-9 14 -9 14 -11 11 C-11.55813953 3.3255814 -11.55813953 3.3255814 -9 0 C-5.82453305 -1.42348518 -3.30021001 -0.8250525 0 0 Z " fill="#FED6EF" transform="translate(311,128)"/>
<path d="M0 0 C0.66 0.66 1.32 1.32 2 2 C1.01 2.495 1.01 2.495 0 3 C-0.08935201 6.21667249 0.15937603 8.90226756 1 12 C-2.39986109 11.92983401 -5.67773021 11.75506132 -9 11 C-10.8125 8.5625 -10.8125 8.5625 -12 6 C-14.57099402 4.65310085 -14.57099402 4.65310085 -17 4 C-11.95251681 0.63501121 -6.02939318 -0.57422792 0 0 Z " fill="#FEE7F5" transform="translate(320,147)"/>
<path d="M0 0 C0.66 0.66 1.32 1.32 2 2 C1.44444444 6.55555556 1.44444444 6.55555556 0 8 C-1.99958364 8.04080783 -4.00045254 8.04254356 -6 8 C-5.67 8.99 -5.34 9.98 -5 11 C-2.69 11 -0.38 11 2 11 C1.01 12.485 1.01 12.485 0 14 C-3.4375 14.4375 -3.4375 14.4375 -7 14 C-9.62541413 11.79803976 -9.9445448 10.38026421 -10.4375 7 C-10 4 -10 4 -8.375 1.625 C-5.35164037 -0.44361448 -3.59411792 -0.46879799 0 0 Z " fill="#FD27AA" transform="translate(192,361)"/>
<path d="M0 0 C0 0.99 0 1.98 0 3 C0.3403125 4.5778125 0.3403125 4.5778125 0.6875 6.1875 C1.08444906 11.03027853 -0.06540122 13.58911478 -2 18 C-3.2077558 14.37673261 -2.54311128 13.35853631 -1 10 C-3.73747836 10.60832852 -5.50622518 11.30034619 -7.15234375 13.6328125 C-9.56316737 18.27251078 -10.90752736 22.90179433 -12 28 C-12.99 27.67 -13.98 27.34 -15 27 C-14.505 25.515 -14.505 25.515 -14 24 C-13.80921875 23.41605469 -13.6184375 22.83210938 -13.421875 22.23046875 C-11.079139 15.10691683 -8.53912096 8.05534402 -6 1 C-4.7934375 1.0309375 -4.7934375 1.0309375 -3.5625 1.0625 C-1.06645115 1.29633621 -1.06645115 1.29633621 0 0 Z " fill="#FD38B1" transform="translate(291,121)"/>
<path d="M0 0 C4.875 0.875 4.875 0.875 6 2 C6.08700342 3.63472882 6.10701063 5.27314055 6.09765625 6.91015625 C6.09443359 7.89951172 6.09121094 8.88886719 6.08789062 9.90820312 C6.07951172 10.94912109 6.07113281 11.99003906 6.0625 13.0625 C6.05798828 14.10728516 6.05347656 15.15207031 6.04882812 16.22851562 C6.03699913 18.8190666 6.02051689 21.40950559 6 24 C4.125 23.6875 4.125 23.6875 2 23 C1.34 22.01 0.68 21.02 0 20 C0.33 19.01 0.66 18.02 1 17 C1.66 17.33 2.32 17.66 3 18 C2.34 15.36 1.68 12.72 1 10 C1.99 10 2.98 10 4 10 C4 8.35 4 6.7 4 5 C2.35 5 0.7 5 -1 5 C-0.67 3.35 -0.34 1.7 0 0 Z " fill="#FEE7F5" transform="translate(264,105)"/>
<path d="M0 0 C0.99 0.33 1.98 0.66 3 1 C3.33 4.63 3.66 8.26 4 12 C4.99 11.67 5.98 11.34 7 11 C7.33 7.37 7.66 3.74 8 0 C8.99 0 9.98 0 11 0 C11 3.96 11 7.92 11 12 C11.66 12 12.32 12 13 12 C13 12.66 13 13.32 13 14 C12.195625 13.814375 11.39125 13.62875 10.5625 13.4375 C9.716875 13.293125 8.87125 13.14875 8 13 C7.67 13.33 7.34 13.66 7 14 C5.00041636 14.04080783 2.99954746 14.04254356 1 14 C-0.38226016 11.23547967 -0.09525387 8.9538637 -0.0625 5.875 C-0.05347656 4.77929688 -0.04445312 3.68359375 -0.03515625 2.5546875 C-0.02355469 1.71164062 -0.01195312 0.86859375 0 0 Z " fill="#FD12A2" transform="translate(212,361)"/>
<path d="M0 0 C7.92 0 15.84 0 24 0 C22 3 22 3 19 4 C16.32076754 4.12204131 13.67898704 4.18511656 11 4.1875 C10.27554687 4.19974609 9.55109375 4.21199219 8.8046875 4.22460938 C4.99299702 4.23515833 3.2463696 4.1642464 0 2 C0 1.34 0 0.68 0 0 Z " fill="#FEF4FA" transform="translate(285,159)"/>
<path d="M0 0 C-0.33 1.65 -0.66 3.3 -1 5 C0.32 5 1.64 5 3 5 C2.67 3.68 2.34 2.36 2 1 C4.4375 1.8125 4.4375 1.8125 7 3 C7.33 3.99 7.66 4.98 8 6 C-0.34325063 8.78108354 -7.24104613 6.19486336 -15 3 C-15 2.67 -15 2.34 -15 2 C-13.43883181 1.66048381 -11.87598662 1.32867456 -10.3125 1 C-9.44238281 0.814375 -8.57226562 0.62875 -7.67578125 0.4375 C-5.06287036 0.01027953 -2.64186962 -0.07616201 0 0 Z " fill="#FE97D6" transform="translate(310,163)"/>
<path d="M0 0 C1.32 0 2.64 0 4 0 C3.67 8.25 3.34 16.5 3 25 C-1.26510391 18.60234413 -1.4190072 9.54212957 -1 2 C-0.67 1.34 -0.34 0.68 0 0 Z " fill="#FEF1F9" transform="translate(272,114)"/>
<path d="M0 0 C0.99 0 1.98 0 3 0 C3 0.99 3 1.98 3 3 C3.99 3 4.98 3 6 3 C6 3.66 6 4.32 6 5 C5.01 5 4.02 5 3 5 C3 8.3 3 11.6 3 15 C3.66 15 4.32 15 5 15 C5 15.66 5 16.32 5 17 C0.125 16.125 0.125 16.125 -1 15 C-1.07205511 13.31391034 -1.08386068 11.62499341 -1.0625 9.9375 C-1.05347656 9.01839844 -1.04445312 8.09929687 -1.03515625 7.15234375 C-1.02355469 6.44207031 -1.01195312 5.73179687 -1 5 C-1.66 4.67 -2.32 4.34 -3 4 C-1.6875 2 -1.6875 2 0 0 Z " fill="#FD38B1" transform="translate(228,358)"/>
<path d="M0 0 C0.99 0.33 1.98 0.66 3 1 C3.054138 3.24973447 3.09285491 5.49984383 3.125 7.75 C3.14820313 9.00296875 3.17140625 10.2559375 3.1953125 11.546875 C3.01472805 14.73960816 2.79769093 16.41031936 1 19 C-1.95664519 20.4783226 -4.74229737 20.06032783 -8 20 C-8.33 18.68 -8.66 17.36 -9 16 C-8.01 16 -7.02 16 -6 16 C-6 16.99 -6 17.98 -6 19 C-4.68 18.67 -3.36 18.34 -2 18 C-1.40267181 15.23735711 -1 12.83967231 -1 10 C-0.84739214 8.26953591 -0.67951995 6.54037955 -0.5 4.8125 C-0.4071875 3.91144531 -0.314375 3.01039063 -0.21875 2.08203125 C-0.1465625 1.39496094 -0.074375 0.70789063 0 0 Z " fill="#FD24A9" transform="translate(245,361)"/>
<path d="M0 0 C0.33 0 0.66 0 1 0 C0.7027213 6.68877075 -1.87209747 12.72139897 -6 18 C-8.703125 18.8203125 -8.703125 18.8203125 -11 19 C-9.92424145 16.76689448 -8.83977517 14.53875499 -7.75 12.3125 C-7.44964844 11.68666016 -7.14929688 11.06082031 -6.83984375 10.41601562 C-4.93891799 6.55349627 -2.89522101 3.23547134 0 0 Z " fill="#FEF4FB" transform="translate(297,104)"/>
<path d="M0 0 C0.66 0.66 1.32 1.32 2 2 C1.01 2.33 0.02 2.66 -1 3 C0.65 3.33 2.3 3.66 4 4 C4 4.66 4 5.32 4 6 C1.5622037 6.05397335 -0.87439685 6.09365616 -3.3125 6.125 C-4.34793945 6.15013672 -4.34793945 6.15013672 -5.40429688 6.17578125 C-9.17135396 6.21217794 -10.78431704 6.14378864 -14 4 C-9.12491408 0.09993126 -6.24380179 -0.62438018 0 0 Z " fill="#FEE1F3" transform="translate(306,152)"/>
<path d="M0 0 C3.53571429 0.53571429 3.53571429 0.53571429 5 2 C5.35897436 8.46153846 5.35897436 8.46153846 3 12 C1.68 12 0.36 12 -1 12 C-2.11445498 9.77109005 -2.16480286 8.46944894 -2.1875 6 C-2.20167969 5.29875 -2.21585938 4.5975 -2.23046875 3.875 C-2 2 -2 2 0 0 Z " fill="#FD0DA0" transform="translate(249,92)"/>
<path d="M0 0 C0 5.91962734 -5.57572358 10.69594278 -9.5 14.8125 C-12.38567794 17.62748205 -15.24705701 19.44390169 -19 21 C-17.62441699 16.26563147 -14.9758311 13.96215367 -11.1875 11.0625 C-6.83535211 7.65106482 -3.42301107 4.34678116 0 0 Z " fill="#FD1AA5" transform="translate(281,255)"/>
<path d="M0 0 C2.45304131 1.72642955 2.94751704 2.72316238 3.51171875 5.69921875 C3.59873047 7.17841797 3.59873047 7.17841797 3.6875 8.6875 C3.78611328 10.17830078 3.78611328 10.17830078 3.88671875 11.69921875 C3.92410156 12.45847656 3.96148437 13.21773438 4 14 C2.68 13.67 1.36 13.34 0 13 C-1.125 9.25 -1.125 9.25 0 7 C-0.66 6.67 -1.32 6.34 -2 6 C-1.34 6 -0.68 6 0 6 C-0.66 4.68 -1.32 3.36 -2 2 C-2.66 2 -3.32 2 -4 2 C-4.33 3.32 -4.66 4.64 -5 6 C-5.99 5.67 -6.98 5.34 -8 5 C-8 3.68 -8 2.36 -8 1 C-5.20129973 -0.39935013 -3.09501208 -0.25265405 0 0 Z " fill="#FD1AA6" transform="translate(205,361)"/>
<path d="M0 0 C0.99 0 1.98 0 3 0 C2.94199219 0.70382813 2.88398438 1.40765625 2.82421875 2.1328125 C2.47046431 9.87498112 3.96788134 15.78199041 6.80859375 22.96875 C7.73668456 25.33005644 8.47291392 27.52814803 9 30 C3.5882042 25.55459631 1.01761273 18.79765305 0 12 C-0.0659735 9.89676466 -0.08562245 7.79164276 -0.0625 5.6875 C-0.05347656 4.61886719 -0.04445313 3.55023438 -0.03515625 2.44921875 C-0.02355469 1.64097656 -0.01195312 0.83273438 0 0 Z " fill="#FEE8F6" transform="translate(258,105)"/>
<path d="M0 0 C2.31 0.66 4.62 1.32 7 2 C6.625 4.4375 6.625 4.4375 6 7 C5.01 7.495 5.01 7.495 4 8 C4.33 10.31 4.66 12.62 5 15 C3.68 14.67 2.36 14.34 1 14 C-0.20568053 9.32798795 -0.09382426 4.78503708 0 0 Z " fill="#FEB4E2" transform="translate(262,108)"/>
<path d="M0 0 C1.8125 1.5 1.8125 1.5 2.5625 4.625 C2.68625 6.048125 2.68625 6.048125 2.8125 7.5 C1.4925 7.5 0.1725 7.5 -1.1875 7.5 C-1.1875 6.18 -1.1875 4.86 -1.1875 3.5 C-7.42437536 3.67249973 -7.42437536 3.67249973 -12.75 6.5625 C-13.224375 7.201875 -13.69875 7.84125 -14.1875 8.5 C-16.20804804 6.85830472 -18.20793058 5.19088222 -20.1875 3.5 C-20.1875 3.17 -20.1875 2.84 -20.1875 2.5 C-19.22328125 2.45101562 -18.2590625 2.40203125 -17.265625 2.3515625 C-16.00234375 2.27679688 -14.7390625 2.20203125 -13.4375 2.125 C-12.18453125 2.05539063 -10.9315625 1.98578125 -9.640625 1.9140625 C-6.16413383 1.49719817 -3.27777532 -0.74920579 0 0 Z " fill="#FD40B4" transform="translate(310.1875,160.5)"/>
<path d="M0 0 C1.875 0.75 1.875 0.75 2.875 1.75 C3.0625 4.6875 3.0625 4.6875 2.875 7.75 C2.215 8.41 1.555 9.07 0.875 9.75 C0.215 8.76 -0.445 7.77 -1.125 6.75 C-3.435 7.08 -5.745 7.41 -8.125 7.75 C-3.4931073 -0.4109538 -3.4931073 -0.4109538 0 0 Z " fill="#FEF4FA" transform="translate(294.125,93.25)"/>
<path d="M0 0 C0.33 0 0.66 0 1 0 C1.36504603 1.58086048 1.71660506 3.16483907 2.0625 4.75 C2.25972656 5.63171875 2.45695313 6.5134375 2.66015625 7.421875 C2.99825872 9.98679028 2.81158635 11.57091639 2 14 C-0.31 14 -2.62 14 -5 14 C-4.54636829 12.41531323 -4.08688548 10.83230076 -3.625 9.25 C-3.36976563 8.36828125 -3.11453125 7.4865625 -2.8515625 6.578125 C-2.0790066 4.23919428 -1.16374324 2.16557438 0 0 Z " fill="#FED5EF" transform="translate(206,319)"/>
<path d="M0 0 C1.5994614 3.19892281 2.42595236 5.35462576 3.125 8.75 C3.29257812 9.54921875 3.46015625 10.3484375 3.6328125 11.171875 C3.81457031 12.07679688 3.81457031 12.07679688 4 13 C3.443125 12.814375 2.88625 12.62875 2.3125 12.4375 C-0.45038789 11.76509521 -0.45038789 11.76509521 -5 13 C-3.35 8.71 -1.7 4.42 0 0 Z " fill="#FEE2F3" transform="translate(276,320)"/>
<path d="M0 0 C0.66 0 1.32 0 2 0 C2.8320582 5.72040011 3.12036664 11.22240116 3 17 C4.32 17.33 5.64 17.66 7 18 C4.69 18 2.38 18 0 18 C0 12.06 0 6.12 0 0 Z " fill="#FD099F" transform="translate(168,357)"/>
<path d="M0 0 C0.99 0.66 1.98 1.32 3 2 C3.99 2 4.98 2 6 2 C6.99 2.66 7.98 3.32 9 4 C6.73194205 4.69809445 4.46133393 5.38371017 2.1875 6.0625 C1.54490234 6.26166016 0.90230469 6.46082031 0.24023438 6.66601562 C-4.66015625 8.11328125 -4.66015625 8.11328125 -8 7 C-5.36 4.69 -2.72 2.38 0 0 Z " fill="#FEF7FC" transform="translate(310,141)"/>
<path d="M0 0 C0.99 0.33 1.98 0.66 3 1 C2.875 3.25 2.875 3.25 2 6 C-0.875 8.375 -0.875 8.375 -4 10 C-4.99 9.67 -5.98 9.34 -7 9 C-5.76465298 5.29395893 -3.80264776 3.66251537 -1 1 C-0.67 0.67 -0.34 0.34 0 0 Z " fill="#FEEDF8" transform="translate(305,120)"/>
<path d="M0 0 C0.99 0 1.98 0 3 0 C3.33 4.29 3.66 8.58 4 13 C4.99 13.33 5.98 13.66 7 14 C4.625 14.1875 4.625 14.1875 2 14 C-0.28062828 10.57905758 -0.21925007 9.31812778 -0.125 5.3125 C-0.10695312 4.31863281 -0.08890625 3.32476562 -0.0703125 2.30078125 C-0.04710937 1.54152344 -0.02390625 0.78226562 0 0 Z " fill="#FD1EA7" transform="translate(236,361)"/>
<path d="M0 0 C1.258125 0.12375 2.51625 0.2475 3.8125 0.375 C4.87404297 0.47941406 4.87404297 0.47941406 5.95703125 0.5859375 C8 1 8 1 11 3 C10.01 3 9.02 3 8 3 C8 3.99 8 4.98 8 6 C8.99 6.33 9.98 6.66 11 7 C6.39146203 6.27991594 2.32762591 4.68704061 -2 3 C-1.34 2.01 -0.68 1.02 0 0 Z " fill="#FEBFE6" transform="translate(311,159)"/>
<path d="M0 0 C2.475 0.495 2.475 0.495 5 1 C5.625 3.375 5.625 3.375 6 6 C5.34 6.66 4.68 7.32 4 8 C2.68 8 1.36 8 0 8 C0 5.36 0 2.72 0 0 Z " fill="#FEECF7" transform="translate(171,366)"/>
<path d="M0 0 C0.125 2.875 0.125 2.875 0 6 C-0.66 6.66 -1.32 7.32 -2 8 C-3.32 8 -4.64 8 -6 8 C-5.74438677 5.6568787 -5.40729228 3.32156597 -5 1 C-3 0 -3 0 0 0 Z " fill="#FD0DA0" transform="translate(293,99)"/>
<path d="M0 0 C-0.33 0.66 -0.66 1.32 -1 2 C-2.32 2 -3.64 2 -5 2 C-4.67 2.99 -4.34 3.98 -4 5 C-7.40931897 6.13643966 -8.00335456 5.86747764 -11.1875 4.5625 C-11.90292969 4.27503906 -12.61835938 3.98757812 -13.35546875 3.69140625 C-13.89816406 3.46324219 -14.44085938 3.23507813 -15 3 C-15 2.67 -15 2.34 -15 2 C-13.43883181 1.66048381 -11.87598662 1.32867456 -10.3125 1 C-9.44238281 0.814375 -8.57226562 0.62875 -7.67578125 0.4375 C-5.06287036 0.01027953 -2.64186962 -0.07616201 0 0 Z " fill="#FEEAF7" transform="translate(310,163)"/>
<path d="M0 0 C0.99 0 1.98 0 3 0 C3 3.83764027 1.73464665 5.11486085 -0.5 8.1875 C-1.1496875 9.08855469 -1.799375 9.98960937 -2.46875 10.91796875 C-2.9740625 11.60503906 -3.479375 12.29210937 -4 13 C-3.34 13.33 -2.68 13.66 -2 14 C-2.99 14 -3.98 14 -5 14 C-4.46515599 8.65155992 -2.53309233 4.64203897 0 0 Z " fill="#FE7ACB" transform="translate(285,144)"/>
<path d="M0 0 C1.67542976 0.28604898 3.34385343 0.61781233 5 1 C5.33 3.31 5.66 5.62 6 8 C5.34 8 4.68 8 4 8 C3.67 7.01 3.34 6.02 3 5 C1.35 5.33 -0.3 5.66 -2 6 C-1.125 1.125 -1.125 1.125 0 0 Z " fill="#FEF1F9" transform="translate(300,108)"/>
<path d="M0 0 C0.66 0.99 1.32 1.98 2 3 C1.31164062 3.94359375 1.31164062 3.94359375 0.609375 4.90625 C-3.12088311 10.10980334 -6.31007071 15.18975274 -9 21 C-10 18 -10 18 -8.671875 15.0390625 C-8.03765625 13.91242188 -7.4034375 12.78578125 -6.75 11.625 C-6.12609375 10.50351563 -5.5021875 9.38203125 -4.859375 8.2265625 C-3.26835446 5.46567391 -1.65288052 2.72419197 0 0 Z " fill="#FD3AB2" transform="translate(296,101)"/>
<path d="M0 0 C1.32 0.33 2.64 0.66 4 1 C4.625 3.375 4.625 3.375 5 6 C4.34 6.66 3.68 7.32 3 8 C2.01 8 1.02 8 0 8 C0 5.36 0 2.72 0 0 Z " fill="#FEE6F5" transform="translate(171,357)"/>
<path d="M0 0 C-1 2 -1 2 -3.51171875 2.8515625 C-4.55972656 3.10679687 -5.60773438 3.36203125 -6.6875 3.625 C-7.72261719 3.88539063 -8.75773437 4.14578125 -9.82421875 4.4140625 C-12.96214097 4.99301494 -15.81757007 5.1049677 -19 5 C-15.58386395 3.14047766 -12.08242178 1.97159236 -8.375 0.8125 C-7.22773438 0.44769531 -6.08046875 0.08289063 -4.8984375 -0.29296875 C-2 -1 -2 -1 0 0 Z " fill="#FD3AB2" transform="translate(355,299)"/>
<path d="M0 0 C3.76607955 1.25535985 4.26441793 2.52883585 6 6 C6 6.99 6 7.98 6 9 C1.79373966 7.49776416 0.26099979 4.71449966 -2 1 C-1.34 0.67 -0.68 0.34 0 0 Z " fill="#FFF9FD" transform="translate(258,127)"/>
<path d="M0 0 C0.625 1.8125 0.625 1.8125 1 4 C0.01 5.485 0.01 5.485 -1 7 C-2.32 7 -3.64 7 -5 7 C-5 6.01 -5 5.02 -5 4 C-5.66 3.67 -6.32 3.34 -7 3 C-4.69 2.01 -2.38 1.02 0 0 Z " fill="#FEDDF2" transform="translate(244,373)"/>
<path d="M0 0 C3.63 0 7.26 0 11 0 C8.75 4.5 8.75 4.5 5 6 C3.35 4.02 1.7 2.04 0 0 Z " fill="#FD82CE" transform="translate(290,163)"/>
<path d="M0 0 C0.99 0 1.98 0 3 0 C3 1.98 3 3.96 3 6 C1.35 6.33 -0.3 6.66 -2 7 C-2.125 4.625 -2.125 4.625 -2 2 C-1.34 1.34 -0.68 0.68 0 0 Z " fill="#FD0EA1" transform="translate(300,112)"/>
<path d="M0 0 C2.48659621 2.48659621 3.0343111 4.60483946 4.125 7.9375 C4.47820312 8.99839844 4.83140625 10.05929688 5.1953125 11.15234375 C6 14 6 14 6 17 C5.34 17 4.68 17 4 17 C3.32844651 14.73050898 2.6626037 12.4596039 2 10.1875 C1.443125 8.29064453 1.443125 8.29064453 0.875 6.35546875 C0 3 0 3 0 0 Z " fill="#FD3CB3" transform="translate(311,200)"/>
<path d="M0 0 C1.27875 -0.061875 2.5575 -0.12375 3.875 -0.1875 C4.95394531 -0.23970703 4.95394531 -0.23970703 6.0546875 -0.29296875 C6.69664062 -0.19628906 7.33859375 -0.09960938 8 0 C8.66 0.99 9.32 1.98 10 3 C9.01 3.33 8.02 3.66 7 4 C6.67 4.99 6.34 5.98 6 7 C5.34 6.67 4.68 6.34 4 6 C4 4.68 4 3.36 4 2 C2.68 1.34 1.36 0.68 0 0 Z " fill="#FD42B5" transform="translate(189,134)"/>
<path d="M0 0 C0.99 0.33 1.98 0.66 3 1 C2.01 1.495 2.01 1.495 1 2 C0.67 2.99 0.34 3.98 0 5 C1.65 4.67 3.3 4.34 5 4 C5 4.66 5 5.32 5 6 C2.69 6.33 0.38 6.66 -2 7 C-2.33 5.35 -2.66 3.7 -3 2 C-2.01 1.34 -1.02 0.68 0 0 Z " fill="#FD1DA6" transform="translate(199,368)"/>
<path d="M0 0 C0.4125 0.45375 0.825 0.9075 1.25 1.375 C3.06408095 3.05950374 4.75285627 3.99265971 7 5 C6.01 6.32 5.02 7.64 4 9 C2.35 8.67 0.7 8.34 -1 8 C-0.835 7.05125 -0.67 6.1025 -0.5 5.125 C0.0526635 2.19831099 0.0526635 2.19831099 0 0 Z " fill="#FECFEC" transform="translate(185,143)"/>
<path d="M0 0 C2.0625 0.4375 2.0625 0.4375 4 1 C3.67 2.32 3.34 3.64 3 5 C1.35 5.33 -0.3 5.66 -2 6 C-1.125 1.125 -1.125 1.125 0 0 Z " fill="#FED8EF" transform="translate(187,362)"/>
<path d="M0 0 C0.50144531 0.15597656 1.00289063 0.31195313 1.51953125 0.47265625 C5.54983466 1.32949241 9.66709454 1.36001017 13.77539062 1.51757812 C15.52196538 1.60859923 17.26290594 1.79674533 19 2 C19.33 2.66 19.66 3.32 20 4 C13.07 3.67 6.14 3.34 -1 3 C-0.67 2.01 -0.34 1.02 0 0 Z " fill="#FE78CA" transform="translate(291,156)"/>
<path d="M0 0 C0 0.66 0 1.32 0 2 C-4.62 2 -9.24 2 -14 2 C-8.83363353 -0.58318323 -5.62102204 -1.44540567 0 0 Z " fill="#FFFBFD" transform="translate(310,156)"/>
<path d="M0 0 C2.475 0.495 2.475 0.495 5 1 C5 2.65 5 4.3 5 6 C3.35 5.67 1.7 5.34 0 5 C0 3.35 0 1.7 0 0 Z " fill="#FD069D" transform="translate(319,150)"/>
<path d="M0 0 C2.0625 0.4375 2.0625 0.4375 4 1 C4 2.32 4 3.64 4 5 C2.68 5.33 1.36 5.66 0 6 C-0.38218767 4.34385343 -0.71395102 2.67542976 -1 1 C-0.67 0.67 -0.34 0.34 0 0 Z " fill="#FD26AA" transform="translate(316,138)"/>
<path d="M0 0 C2.475 0.495 2.475 0.495 5 1 C4.67 2.65 4.34 4.3 4 6 C2.68 6 1.36 6 0 6 C0 4.02 0 2.04 0 0 Z " fill="#FD10A2" transform="translate(264,109)"/>
<path d="M0 0 C0.99 0 1.98 0 3 0 C2.67 3.96 2.34 7.92 2 12 C1.34 12 0.68 12 0 12 C0 8.04 0 4.08 0 0 Z " fill="#FEF8FC" transform="translate(258,105)"/>
<path d="M0 0 C1.98 0.495 1.98 0.495 4 1 C4.3125 3.3125 4.3125 3.3125 4 6 C1.5 7.8125 1.5 7.8125 -1 9 C-0.67 6.03 -0.34 3.06 0 0 Z " fill="#FD17A4" transform="translate(176,366)"/>
<path d="M0 0 C2.4375 0.375 2.4375 0.375 5 1 C5.33 1.66 5.66 2.32 6 3 C5.360625 3.12375 4.72125 3.2475 4.0625 3.375 C3.381875 3.58125 2.70125 3.7875 2 4 C1.67 4.66 1.34 5.32 1 6 C0.34 5.67 -0.32 5.34 -1 5 C-0.67 3.35 -0.34 1.7 0 0 Z " fill="#FD5EC0" transform="translate(212,115)"/>
<path d="M0 0 C1.32 0.33 2.64 0.66 4 1 C3.34 2.65 2.68 4.3 2 6 C0.68 6 -0.64 6 -2 6 C-1.49396008 3.83125748 -1.00016187 2.00032373 0 0 Z " fill="#FEC9EA" transform="translate(201,367)"/>
<path d="M0 0 C3.63 0.66 7.26 1.32 11 2 C11 2.66 11 3.32 11 4 C9.54119891 3.85892253 8.08296449 3.71197585 6.625 3.5625 C5.40683594 3.44068359 5.40683594 3.44068359 4.1640625 3.31640625 C2 3 2 3 0 2 C0 1.34 0 0.68 0 0 Z " fill="#FD089E" transform="translate(216,300)"/>
<path d="M0 0 C1.55693206 2.33539809 2.90200646 4.57968756 4.1875 7.0625 C4.55230469 7.75472656 4.91710937 8.44695312 5.29296875 9.16015625 C5.52628906 9.76730469 5.75960938 10.37445313 6 11 C5.67 11.66 5.34 12.32 5 13 C3.96387729 11.59447701 2.94655075 10.17508306 1.9375 8.75 C1.36902344 7.96109375 0.80054688 7.1721875 0.21484375 6.359375 C-1 4 -1 4 -0.68359375 1.703125 C-0.45800781 1.14109375 -0.23242188 0.5790625 0 0 Z " fill="#FD2CAD" transform="translate(324,288)"/>
<path d="M0 0 C0.99 0.33 1.98 0.66 3 1 C4.6875 4.5625 4.6875 4.5625 6 8 C5.01 8.33 4.02 8.66 3 9 C2.01 6.03 1.02 3.06 0 0 Z " fill="#FEE0F3" transform="translate(173,259)"/>
<path d="M0 0 C4.13621084 3.3810038 7.81316569 6.66590534 11 11 C8.08728356 9.65319085 5.70671723 8.12551255 3.25 6.0625 C2.63640625 5.55847656 2.0228125 5.05445313 1.390625 4.53515625 C0 3 0 3 0 0 Z " fill="#FD5EC0" transform="translate(239,125)"/>
<path d="M0 0 C1.32 0.66 2.64 1.32 4 2 C4 2.99 4 3.98 4 5 C2.35 5.33 0.7 5.66 -1 6 C-1.042721 4.33388095 -1.04063832 2.66617115 -1 1 C-0.67 0.67 -0.34 0.34 0 0 Z " fill="#FEE6F5" transform="translate(201,362)"/>
<path d="M0 0 C-0.66 0.66 -1.32 1.32 -2 2 C-2.66 2 -3.32 2 -4 2 C-4.33 3.32 -4.66 4.64 -5 6 C-5.99 5.67 -6.98 5.34 -8 5 C-8 3.68 -8 2.36 -8 1 C-5.29120665 -0.35439668 -2.99066732 -0.06501451 0 0 Z " fill="#FD29AB" transform="translate(205,361)"/>
<path d="M0 0 C1.65 0 3.3 0 5 0 C4.67 1.32 4.34 2.64 4 4 C2.68 4.33 1.36 4.66 0 5 C0 3.35 0 1.7 0 0 Z " fill="#FD15A4" transform="translate(305,130)"/>
<path d="M0 0 C2.4375 0.8125 2.4375 0.8125 5 2 C5.33 2.99 5.66 3.98 6 5 C4.02 5.33 2.04 5.66 0 6 C0 4.02 0 2.04 0 0 Z " fill="#FEDBF1" transform="translate(312,164)"/>
<path d="M0 0 C2.625 -0.1875 2.625 -0.1875 5 0 C5.33 0.66 5.66 1.32 6 2 C5.34 2 4.68 2 4 2 C4 2.66 4 3.32 4 4 C1.03 3.505 1.03 3.505 -2 3 C-1.34 2.01 -0.68 1.02 0 0 Z " fill="#FEEBF7" transform="translate(311,159)"/>
<path d="M0 0 C0.66 0 1.32 0 2 0 C2.33 0.99 2.66 1.98 3 3 C2.01 3.66 1.02 4.32 0 5 C0 5.99 0 6.98 0 8 C-1.32 6.35 -2.64 4.7 -4 3 C-3.67 2.34 -3.34 1.68 -3 1 C-2.34 1 -1.68 1 -1 1 C-0.67 0.67 -0.34 0.34 0 0 Z " fill="#FEA7DC" transform="translate(257,124)"/>
<path d="M0 0 C3.65316671 1.24976756 4.78065836 1.67098753 7 5 C6.01 5.33 5.02 5.66 4 6 C1.8125 4.75 1.8125 4.75 0 3 C0 2.01 0 1.02 0 0 Z " fill="#FE8AD1" transform="translate(262,146)"/>
<path d="M0 0 C2 3 2 3 2 5 C0.35 5.66 -1.3 6.32 -3 7 C-3.33 6.01 -3.66 5.02 -4 4 C-3.34 4 -2.68 4 -2 4 C-2 3.34 -2 2.68 -2 2 C-1.34 2 -0.68 2 0 2 C0 1.34 0 0.68 0 0 Z " fill="#FD33AF" transform="translate(275,292)"/>
<path d="M0 0 C0.33 0 0.66 0 1 0 C1 2.64 1 5.28 1 8 C0.01 8.33 -0.98 8.66 -2 9 C-1.125 1.125 -1.125 1.125 0 0 Z " fill="#FD4BB9" transform="translate(224,152)"/>
<path d="M0 0 C0.99 0.33 1.98 0.66 3 1 C2.67 2.65 2.34 4.3 2 6 C1.01 6 0.02 6 -1 6 C-0.67 4.02 -0.34 2.04 0 0 Z " fill="#FD0FA1" transform="translate(191,362)"/>
<path d="M0 0 C0.99 0 1.98 0 3 0 C3 3 3 3 1 6 C0.34 6 -0.32 6 -1 6 C-0.67 4.02 -0.34 2.04 0 0 Z " fill="#FE9FD9" transform="translate(285,144)"/>
</svg>
