<svg xmlns="http://www.w3.org/2000/svg" version="1.1" xmlns:xlink="http://www.w3.org/1999/xlink" width="200" height="200"><svg xmlns="http://www.w3.org/2000/svg" version="1.1" xmlns:xlink="http://www.w3.org/1999/xlink" viewBox="0 0 200 200"><rect width="200" height="200" fill="url('#gradient')"></rect><defs><linearGradient id="SvgjsLinearGradient1001" gradientTransform="rotate(45 0.5 0.5)"><stop offset="0%" stop-color="#f3c5a6"></stop><stop offset="100%" stop-color="#e0c6b0"></stop></linearGradient></defs><g><g fill="#6a2841" transform="matrix(1.462392891145668,0,0,1.462392891145668,8.43008067943829,107.84694825169095)" stroke="#b34a58" stroke-width="0.2"><path d="M10.03-8.30L10.03-5.66L4.50-5.66L4.50 0L1.07 0L1.07-14.22L10.59-14.22L10.59-11.57L4.50-11.57L4.50-8.30L10.03-8.30ZM20.77 0L17.48 0Q17.30-0.32 17.17-0.95L17.17-0.95Q16.26 0.20 14.63 0.20L14.63 0.20Q13.13 0.20 12.09-0.71Q11.04-1.61 11.04-2.98L11.04-2.98Q11.04-4.70 12.31-5.58Q13.58-6.46 16.01-6.46L16.01-6.46L17.02-6.46L17.02-7.01Q17.02-8.47 15.76-8.47L15.76-8.47Q14.59-8.47 14.59-7.31L14.59-7.31L11.30-7.31Q11.30-8.85 12.60-9.80Q13.91-10.76 15.93-10.76Q17.95-10.76 19.12-9.78Q20.29-8.79 20.32-7.07L20.32-7.07L20.32-2.39Q20.34-0.94 20.77-0.17L20.77-0.17L20.77 0ZM15.42-2.15L15.42-2.15Q16.04-2.15 16.44-2.41Q16.85-2.68 17.02-3.01L17.02-3.01L17.02-4.70L16.06-4.70Q14.35-4.70 14.35-3.15L14.35-3.15Q14.35-2.71 14.65-2.43Q14.95-2.15 15.42-2.15ZM25.36-15L25.36-9.43Q26.42-10.76 28.06-10.76L28.06-10.76Q29.80-10.76 30.69-9.73Q31.58-8.69 31.60-6.67L31.60-6.67L31.60 0L28.30 0L28.30-6.59Q28.30-7.43 27.96-7.83Q27.62-8.22 26.80-8.22L26.80-8.22Q25.78-8.22 25.36-7.58L25.36-7.58L25.36 0L22.07 0L22.07-15L25.36-15ZM42.68 0L39.38 0Q39.21-0.32 39.07-0.95L39.07-0.95Q38.16 0.20 36.53 0.20L36.53 0.20Q35.04 0.20 33.99-0.71Q32.95-1.61 32.95-2.98L32.95-2.98Q32.95-4.70 34.22-5.58Q35.49-6.46 37.91-6.46L37.91-6.46L38.93-6.46L38.93-7.01Q38.93-8.47 37.67-8.47L37.67-8.47Q36.49-8.47 36.49-7.31L36.49-7.31L33.20-7.31Q33.20-8.85 34.51-9.80Q35.81-10.76 37.83-10.76Q39.85-10.76 41.03-9.78Q42.20-8.79 42.23-7.07L42.23-7.07L42.23-2.39Q42.25-0.94 42.68-0.17L42.68-0.17L42.68 0ZM37.32-2.15L37.32-2.15Q37.94-2.15 38.34-2.41Q38.75-2.68 38.93-3.01L38.93-3.01L38.93-4.70L37.97-4.70Q36.25-4.70 36.25-3.15L36.25-3.15Q36.25-2.71 36.55-2.43Q36.86-2.15 37.32-2.15ZM50.50-10.64L50.44-7.59L49.36-7.67Q47.80-7.67 47.36-6.69L47.36-6.69L47.36 0L44.07 0L44.07-10.57L47.16-10.57L47.27-9.21Q48.10-10.76 49.58-10.76L49.58-10.76Q50.11-10.76 50.50-10.64L50.50-10.64ZM55.10-10.57L55.10 0L51.80 0L51.80-10.57L55.10-10.57ZM51.60-13.29L51.60-13.29Q51.60-13.99 52.11-14.44Q52.62-14.89 53.43-14.89Q54.24-14.89 54.75-14.44Q55.25-13.99 55.25-13.29Q55.25-12.59 54.75-12.14Q54.24-11.69 53.43-11.69Q52.62-11.69 52.11-12.14Q51.60-12.59 51.60-13.29ZM68.03 0L62.26 0L62.26-14.22L67.36-14.22Q70.11-14.22 71.54-13.21Q72.97-12.21 72.97-10.29L72.97-10.29Q72.97-9.19 72.46-8.41Q71.95-7.63 70.97-7.26L70.97-7.26Q72.08-6.96 72.68-6.16Q73.27-5.36 73.27-4.21L73.27-4.21Q73.27-2.12 71.95-1.07Q70.63-0.02 68.03 0L68.03 0ZM68.09-6.04L65.68-6.04L65.68-2.64L67.93-2.64Q68.86-2.64 69.36-3.06Q69.85-3.49 69.85-4.26L69.85-4.26Q69.85-6.04 68.09-6.04L68.09-6.04ZM65.68-11.57L65.68-8.29L67.47-8.29Q68.59-8.30 69.07-8.70Q69.55-9.10 69.55-9.88L69.55-9.88Q69.55-10.78 69.03-11.18Q68.52-11.57 67.36-11.57L67.36-11.57L65.68-11.57ZM80.12 0.20L80.12 0.20Q77.69 0.20 76.18-1.25Q74.68-2.71 74.68-5.03L74.68-5.03L74.68-5.30Q74.68-6.92 75.28-8.16Q75.88-9.40 77.03-10.08Q78.18-10.76 79.77-10.76L79.77-10.76Q81.99-10.76 83.28-9.38Q84.57-8.00 84.57-5.53L84.57-5.53L84.57-4.25L78.03-4.25Q78.20-3.36 78.80-2.85Q79.39-2.34 80.34-2.34L80.34-2.34Q81.90-2.34 82.78-3.44L82.78-3.44L84.29-1.66Q83.67-0.81 82.54-0.31Q81.42 0.20 80.12 0.20ZM79.75-8.22L79.75-8.22Q78.30-8.22 78.03-6.31L78.03-6.31L81.35-6.31L81.35-6.56Q81.37-7.35 80.95-7.79Q80.53-8.22 79.75-8.22ZM95.14 0L91.85 0Q91.67-0.32 91.53-0.95L91.53-0.95Q90.63 0.20 88.99 0.20L88.99 0.20Q87.50 0.20 86.46-0.71Q85.41-1.61 85.41-2.98L85.41-2.98Q85.41-4.70 86.68-5.58Q87.95-6.46 90.37-6.46L90.37-6.46L91.39-6.46L91.39-7.01Q91.39-8.47 90.13-8.47L90.13-8.47Q88.96-8.47 88.96-7.31L88.96-7.31L85.66-7.31Q85.66-8.85 86.97-9.80Q88.27-10.76 90.29-10.76Q92.31-10.76 93.49-9.78Q94.66-8.79 94.69-7.07L94.69-7.07L94.69-2.39Q94.71-0.94 95.14-0.17L95.14-0.17L95.14 0ZM89.79-2.15L89.79-2.15Q90.40-2.15 90.81-2.41Q91.21-2.68 91.39-3.01L91.39-3.01L91.39-4.70L90.43-4.70Q88.71-4.70 88.71-3.15L88.71-3.15Q88.71-2.71 89.01-2.43Q89.32-2.15 89.79-2.15ZM102.90 0L102.80-1.14Q101.76 0.20 99.98 0.20L99.98 0.20Q98.24 0.20 97.35-0.82Q96.46-1.83 96.46-3.72L96.46-3.72L96.46-10.57L99.75-10.57L99.75-3.70Q99.75-2.34 101.06-2.34L101.06-2.34Q102.20-2.34 102.68-3.15L102.68-3.15L102.68-10.57L105.99-10.57L105.99 0L102.90 0ZM108.33-13.19L111.62-13.19L111.62-10.57L113.36-10.57L113.36-8.28L111.62-8.28L111.62-3.45Q111.62-2.85 111.84-2.62Q112.05-2.38 112.69-2.38L112.69-2.38Q113.17-2.38 113.51-2.44L113.51-2.44L113.51-0.09Q112.62 0.20 111.65 0.20L111.65 0.20Q109.95 0.20 109.14-0.61Q108.33-1.41 108.33-3.04L108.33-3.04L108.33-8.28L106.98-8.28L106.98-10.57L108.33-10.57L108.33-13.19ZM117.21-10.57L118.88-4.61L120.63-10.57L124.16-10.57L119.85 1.77L119.67 2.22Q118.75 4.27 116.43 4.27L116.43 4.27Q115.78 4.27 115.07 4.07L115.07 4.07L115.07 1.72L115.50 1.72Q116.19 1.72 116.56 1.52Q116.92 1.32 117.10 0.80L117.10 0.80L117.36 0.10L113.69-10.57L117.21-10.57Z"></path></g></g></svg><style>@media (prefers-color-scheme: light) { :root { filter: none; } }
@media (prefers-color-scheme: dark) { :root { filter: none; } }
</style></svg>