<svg version="1.1" id="Layer_1" xmlns="http://www.w3.org/2000/svg" xmlns:xlink="http://www.w3.org/1999/xlink" x="0px" y="0px"
	 width="100%" viewBox="0 0 512 512" enable-background="new 0 0 512 512" xml:space="preserve">
<path fill="#000000" opacity="1.000000" stroke="none" 
	d="
M360.000000,513.000000 
	C240.396973,513.000000 120.793945,513.000000 1.000000,513.000000 
	C1.000000,359.645294 1.000000,206.290497 1.180813,52.716896 
	C2.046901,54.222446 2.924842,55.252022 5.130028,54.570320 
	C9.516442,53.214310 13.677586,54.139458 17.622597,56.352898 
	C20.499401,57.966988 23.770121,58.716946 26.807795,57.756878 
	C33.940639,55.502506 40.988983,56.505562 48.083164,57.483295 
	C75.598595,61.275524 94.647293,47.937241 109.841797,26.906334 
	C111.082794,25.188660 111.829964,23.062605 112.551506,21.035509 
	C113.296394,18.942837 113.548172,16.491230 112.134453,14.767270 
	C108.257980,10.040132 104.066681,5.571164 100.000000,0.999999 
	C127.354767,1.000000 154.709534,1.000000 182.315735,1.268328 
	C181.909042,2.283306 181.126617,2.953945 180.615234,3.790313 
	C178.804123,6.752317 178.496674,9.850719 181.021851,12.477188 
	C183.498047,15.052711 186.660828,15.458680 189.626892,13.373901 
	C192.776535,11.160084 193.353958,8.059715 191.660858,4.571262 
	C191.087692,3.390329 190.552536,2.190946 190.000000,0.999998 
	C297.618744,1.000000 405.237518,1.000000 512.928101,1.000000 
	C512.928101,171.542786 512.928101,342.085602 512.928101,513.000000 
	C464.979218,513.000000 416.957458,513.000000 368.549805,512.647949 
	C369.142853,510.380341 370.632172,508.542908 370.509308,506.338837 
	C370.298859,502.563782 371.950134,501.380646 375.526947,501.564362 
	C379.540558,501.770508 381.255463,498.895691 381.427399,495.537689 
	C381.613800,491.897186 379.378510,489.507782 375.614044,489.501556 
	C372.156494,489.495880 370.501129,488.532654 370.492584,484.693726 
	C370.484192,480.923828 368.286591,478.421265 364.196259,478.500610 
	C360.106995,478.579956 357.611267,480.684784 357.438080,484.901001 
	C357.333954,487.436066 357.229095,489.518402 353.784546,489.421234 
	C349.829254,489.309662 346.626678,491.021637 346.593384,495.279510 
	C346.559906,499.559784 349.211365,501.883545 353.733307,501.662231 
	C355.753235,501.563416 357.538940,502.079926 357.295197,504.618164 
	C356.985229,507.846008 358.961151,510.253998 360.000000,513.000000 
M146.304001,465.153198 
	C156.451340,472.249115 166.441864,479.599548 177.670227,485.362274 
	C178.761459,482.730164 177.676041,481.066772 177.196274,479.398254 
	C175.017090,471.819672 173.848618,464.089355 174.367508,456.237885 
	C174.942581,447.536377 177.749054,446.075775 185.651016,449.994293 
	C204.237320,459.211151 223.529572,466.437775 243.977814,470.189423 
	C265.655640,474.166656 287.328613,474.351410 308.856293,468.977966 
	C310.480286,468.572601 312.642792,468.867126 313.247620,466.570618 
	C312.463806,465.243530 311.209534,465.472595 310.075592,465.367065 
	C265.914734,461.257782 224.830185,420.622192 225.903107,368.863770 
	C226.377197,345.993439 233.031097,324.645325 243.916367,304.585602 
	C245.129440,302.350098 246.619476,300.399017 248.944794,299.191742 
	C254.300842,296.410980 259.270538,297.736755 263.835480,303.285217 
	C269.081909,309.662048 275.154968,314.598022 284.465088,315.836548 
	C283.233582,313.388794 282.473022,311.733215 281.590240,310.145569 
	C275.293457,298.821014 272.253265,286.663544 272.695923,273.740265 
	C273.331421,255.186661 279.517395,238.235123 288.342194,222.153519 
	C301.297363,198.545166 318.647888,178.387451 337.876831,159.754761 
	C346.172607,151.716263 353.741699,143.134399 359.584991,133.107437 
	C366.614227,121.045326 370.695374,107.960670 370.367615,94.109909 
	C369.863556,72.810081 360.896759,54.544636 347.638641,38.241806 
	C346.583527,36.944359 345.579742,35.075428 342.838013,35.722195 
	C342.115753,39.141079 341.252899,42.659252 340.640533,46.220493 
	C337.685425,63.406101 325.935547,76.567322 319.556946,92.196777 
	C318.449982,94.909126 317.671448,96.682533 319.543610,99.351669 
	C325.472229,107.804138 325.686096,116.686615 320.597778,125.643394 
	C316.649567,132.593369 312.694550,139.543427 308.553040,146.378632 
	C303.450470,154.799973 295.922272,159.074982 286.006256,158.248306 
	C282.472565,157.953705 280.715820,158.893494 279.160126,162.196671 
	C275.425812,170.125641 269.089783,174.847458 260.108643,175.546738 
	C250.624542,176.285172 241.142273,176.113556 231.655701,175.570557 
	C222.064224,175.021561 215.341339,170.251755 211.485779,161.592361 
	C210.259659,158.838531 208.758652,157.923340 205.772766,158.236862 
	C198.459930,159.004745 191.734573,157.205475 186.608337,151.757446 
	C184.044128,149.032257 181.789276,148.996567 178.683975,150.309677 
	C166.245377,155.569473 154.022308,161.252304 142.461975,168.266876 
	C87.213501,201.790665 61.718910,252.398514 59.723396,315.510529 
	C58.964802,339.502594 65.390961,362.628571 75.964561,384.386444 
	C92.022415,417.429565 116.643593,443.012177 146.304001,465.153198 
M315.049469,391.367218 
	C330.026978,400.534546 346.439148,405.717896 363.554688,409.083710 
	C380.394470,412.395355 392.132721,401.604950 389.370331,384.692352 
	C386.604309,367.757294 391.330505,353.740845 404.572083,342.811584 
	C407.465179,340.423706 407.702667,338.444641 406.000763,335.186768 
	C401.541626,326.650909 403.496796,320.875366 412.291138,317.084015 
	C416.216858,315.391602 416.789581,313.465485 415.121063,309.840637 
	C412.930176,305.081024 411.797211,300.056458 413.117676,294.784119 
	C415.582733,284.941833 422.503601,280.442383 431.993347,278.712677 
	C436.581970,277.876343 441.454041,277.733765 445.624939,275.184143 
	C445.331665,274.451935 445.290009,274.065765 445.075745,273.855286 
	C441.633057,270.472992 438.117737,267.163330 434.717224,263.739532 
	C416.479553,245.376892 407.727203,223.331467 409.018646,197.391113 
	C410.084656,175.978119 412.915375,154.653122 410.789490,133.102280 
	C408.397949,108.858696 399.883881,87.627960 382.290222,70.425865 
	C381.067413,69.230247 380.083862,67.410713 377.892914,67.646385 
	C376.736145,69.575363 377.813751,71.282089 378.269043,72.989197 
	C385.487457,100.053619 380.276978,124.664536 363.930664,147.212173 
	C356.341492,157.680435 346.580811,166.064194 337.746643,175.340073 
	C319.975861,193.999329 303.811646,213.832397 293.047638,237.518204 
	C285.598633,253.909409 281.701813,270.887817 285.344360,288.947510 
	C286.880005,296.561188 290.155121,303.436096 294.522400,309.838593 
	C297.483337,314.179352 298.291534,318.765564 295.011902,323.314331 
	C291.918762,327.604492 287.655334,328.475006 282.612823,327.438812 
	C273.158661,325.496124 265.296753,320.862671 258.481567,314.144287 
	C254.727127,310.443176 253.390289,310.637054 251.067276,315.241119 
	C242.253006,332.710571 236.563416,350.998169 237.234268,370.826660 
	C238.447525,406.686127 255.831558,432.076935 287.522430,448.101501 
	C289.975616,449.341980 292.517517,450.661835 295.416962,450.575012 
	C295.493774,450.153503 295.597778,449.957458 295.540405,449.840576 
	C294.809082,448.350037 294.067535,446.864197 293.304047,445.389893 
	C285.845276,430.987762 282.441315,415.844666 284.626923,399.589172 
	C285.682404,391.739044 291.844727,386.078400 299.738770,385.581818 
	C305.543762,385.216644 309.924744,388.122131 315.049469,391.367218 
M177.564789,78.494118 
	C179.853470,88.263474 182.726837,90.547981 192.756073,90.549469 
	C198.248795,90.550278 203.741821,90.496956 209.234131,90.540970 
	C212.598755,90.567940 214.885559,89.289810 216.140350,85.987793 
	C217.630554,82.066322 219.880569,78.527298 222.936798,75.626938 
	C225.154922,73.521935 225.176239,71.481255 223.683395,68.977097 
	C219.934494,62.688633 216.438385,56.246792 212.596878,50.016922 
	C208.214310,42.909584 198.538040,41.836308 193.684097,48.607742 
	C187.225067,57.618317 181.110229,67.003922 177.564789,78.494118 
M258.578644,62.076237 
	C261.887299,56.310421 265.220215,50.558376 268.498444,44.775307 
	C272.624725,37.496193 268.586823,28.317104 260.314514,27.419296 
	C250.408508,26.344179 240.357986,26.285513 230.457535,27.428150 
	C222.294556,28.370264 218.201920,37.294231 222.150436,44.418564 
	C225.694946,50.813923 229.467682,57.082436 233.055801,63.454174 
	C234.478989,65.981468 235.986313,67.443871 239.363434,66.879280 
	C242.922165,66.284348 246.702850,66.279579 250.285385,66.764488 
	C254.157547,67.288589 256.753448,66.361351 258.578644,62.076237 
M312.380524,74.438393 
	C308.387543,66.003044 303.536194,58.035439 298.597168,50.153801 
	C293.705658,42.347958 281.866608,42.153778 277.714905,50.782864 
	C274.767090,56.909805 271.025452,62.661572 267.523621,68.512268 
	C265.861694,71.288963 265.664307,73.610352 268.238495,76.035286 
	C271.047791,78.681717 273.184692,81.947624 274.512573,85.553581 
	C275.895203,89.308273 278.533478,90.556038 282.206818,90.541496 
	C287.697357,90.519768 293.188446,90.588684 298.678741,90.548325 
	C309.129059,90.471504 313.424774,85.709961 312.380524,74.438393 
M296.411560,101.350830 
	C291.751495,101.355667 287.089325,101.446983 282.432037,101.335777 
	C279.173431,101.257973 277.104767,102.337708 276.229736,105.733223 
	C274.971283,110.616631 272.735870,115.097664 269.326111,118.862427 
	C267.306946,121.091858 267.399536,123.103638 268.916412,125.583031 
	C271.867371,130.406433 274.959869,135.202148 277.305023,140.324631 
	C281.779694,150.098404 294.455292,149.235046 299.266022,140.472412 
	C302.867737,133.911926 306.833374,127.551918 310.583832,121.071861 
	C311.579987,119.350616 312.433258,117.560509 312.729370,115.523674 
	C314.075897,106.260750 308.798706,101.367065 296.411560,101.350830 
M219.433060,129.991882 
	C219.837051,129.265625 220.153824,128.471207 220.659363,127.824310 
	C223.629242,124.024025 223.814392,120.688423 220.127045,116.933517 
	C217.223572,113.976868 215.696274,109.918427 214.688400,105.846123 
	C213.873947,102.555260 211.948105,101.253609 208.588470,101.326973 
	C202.107330,101.468506 195.619537,101.284203 189.137131,101.392715 
	C181.102783,101.527206 175.367371,109.661949 178.562912,117.122032 
	C182.425156,126.138504 187.494934,134.634155 193.234604,142.555283 
	C198.596832,149.955536 208.201065,148.871094 213.007187,140.945053 
	C215.075363,137.534317 217.047867,134.065582 219.433060,129.991882 
M231.384338,131.070618 
	C228.402679,136.266174 225.730316,141.672516 222.367096,146.608063 
	C217.284409,154.066971 223.090454,164.061966 231.838348,164.510162 
	C240.968307,164.977966 250.157410,164.933258 259.291168,164.496216 
	C267.710785,164.093353 273.677399,153.774612 268.756378,146.897964 
	C265.384186,142.185638 262.829681,136.880432 260.004364,131.787720 
	C258.545654,129.158356 256.711792,127.795929 253.528214,128.597260 
	C247.953201,130.000565 242.336121,130.008118 236.763596,128.494797 
	C234.544601,127.892204 232.836960,128.391541 231.384338,131.070618 
M236.860947,116.789825 
	C246.043198,120.349213 254.451141,118.693932 260.683289,112.099915 
	C266.136627,106.329979 267.690125,96.467270 264.282684,89.248497 
	C260.628479,81.506950 252.816681,76.929535 244.003677,77.365761 
	C235.280167,77.797562 227.566254,84.281845 225.435089,92.974426 
	C223.094040,102.523033 226.852310,110.764450 236.860947,116.789825 
M124.708817,40.130085 
	C122.699646,42.342575 120.973015,44.878719 118.301575,46.369820 
	C115.700089,47.821877 115.800385,49.331562 117.486702,51.559677 
	C120.180794,55.119331 123.921669,57.775597 125.985901,61.888729 
	C127.641830,65.188278 129.824661,64.944687 131.385025,61.838196 
	C133.665070,57.298939 137.111496,54.171471 141.653534,52.070320 
	C142.803146,51.538509 144.188583,51.068295 144.318237,48.716694 
	C137.370972,46.426952 133.385529,40.177349 128.844559,34.883080 
	C126.412773,36.081661 126.181747,38.118343 124.708817,40.130085 
M413.427643,449.092072 
	C410.666931,445.494568 407.231049,445.401611 403.861267,447.801727 
	C400.897461,449.912750 400.459137,453.263885 402.141724,456.268585 
	C403.985107,459.560425 407.222107,460.516174 410.741089,458.932556 
	C414.943970,457.041138 415.265869,453.658508 413.427643,449.092072 
M442.838531,166.104340 
	C444.547333,167.316040 446.256134,168.527740 447.869812,169.672012 
	C449.264282,168.811584 450.319122,168.012283 451.494293,167.477570 
	C452.657898,166.948135 454.347870,166.996643 454.280518,165.220505 
	C454.211060,163.389435 452.857910,161.952652 451.329712,161.565125 
	C447.586060,160.615753 444.922913,162.676544 442.838531,166.104340 
z"/>
</svg>