<?xml version="1.0" encoding="UTF-8"?>
<svg version="1.1" xmlns="http://www.w3.org/2000/svg" width="512" height="512">
<path d="M0 0 C2.48283449 0.02681247 4.96115047 0.00016038 7.44384766 -0.03173828 C16.15764528 -0.05211051 23.76080878 0.13402674 30.98681641 5.65185547 C33.24072266 7.96826172 33.24072266 7.96826172 34.54931641 10.21435547 C35.00435547 10.95814453 35.45939453 11.70193359 35.92822266 12.46826172 C36.93070434 14.53611139 37.53354558 16.40587305 37.98681641 18.65185547 C38.97681641 18.32185547 39.96681641 17.99185547 40.98681641 17.65185547 C48.55006838 16.98841231 55.00725099 18.49382913 61.04931641 23.28857422 C67.62441185 30.03600079 71.74323196 38.7573565 76.08227539 47.02880859 C76.88258226 48.63876546 76.88258226 48.63876546 77.98681641 49.65185547 C83.5654071 38.95955664 86.34024331 28.50806646 88.53369141 16.71044922 C89.14672764 13.50257858 89.80884464 10.9366103 91.54931641 8.15185547 C95.13306479 5.94647185 98.79472893 5.10919042 102.98681641 5.65185547 C107.91437247 8.31014229 110.88180168 11.6046902 114.11181641 16.02685547 C114.73636719 16.85443359 114.73636719 16.85443359 115.37353516 17.69873047 C117.35517921 20.34506391 119.17030109 22.95703144 120.87744141 25.79638672 C123.33857151 29.12802765 126.09395926 30.92993206 129.61181641 32.96435547 C136.07466122 36.91307894 141.5426088 41.36531656 146.98681641 46.65185547 C147.73318359 47.32474609 148.47955078 47.99763672 149.24853516 48.69091797 C171.22730201 69.17374781 178.78411207 99.30344963 179.92138672 128.33740234 C180.18323226 137.59969982 179.79213914 146.73676437 179.13095093 155.97711182 C176.73280443 183.55574842 176.73280443 183.55574842 180.98681641 210.65185547 C181.36966797 211.94542969 181.36966797 211.94542969 181.76025391 213.26513672 C186.91192837 228.08210868 199.46483798 241.47485439 211.42822266 251.24951172 C214.39462991 253.91853478 214.9779171 255.5415041 215.29931641 259.52685547 C215.18752805 263.33464619 214.46979912 265.65515219 211.98681641 268.65185547 C206.78913175 272.61394122 200.56773815 273.01069927 194.29150391 274.02490234 C189.24740446 274.92455889 185.57161256 275.69241873 181.98681641 279.65185547 C181.36978403 284.27959829 181.73163931 287.36517295 183.48681641 291.65185547 C185.24782187 295.96970539 185.58915656 298.98371931 184.98681641 303.65185547 C181.76226133 308.83068634 178.53444427 310.69386916 172.98681641 312.65185547 C174.38441546 316.19704431 174.38441546 316.19704431 175.98681641 319.65185547 C176.61170003 323.53562584 176.85505055 327.13469893 174.85791016 330.62451172 C172.45777396 333.47584845 170.00530451 335.63837456 166.98681641 337.83935547 C161.54925986 342.18653128 158.0683267 350.10845349 157.04931641 356.90185547 C156.8003654 361.16514153 157.2321005 365.40116236 157.54931641 369.65185547 C158.32344869 380.26748016 156.79442441 388.15676837 149.98681641 396.65185547 C141.76721987 403.67034899 132.728468 406.31507408 121.98681641 405.65185547 C118.46575715 405.11199971 115.01585489 404.34242191 111.54931641 403.52685547 C110.58429199 403.30167236 109.61926758 403.07648926 108.625 402.84448242 C91.20713653 398.64617572 74.8809148 391.99165484 59.78369141 382.26904297 C57.92320338 381.42299526 57.92320338 381.42299526 55.81494141 382.40966797 C53.84330565 383.53182784 53.84330565 383.53182784 52.98681641 385.65185547 C51.63503169 402.18351778 55.80087089 416.39421527 63.98681641 430.65185547 C64.43669922 431.51423828 64.88658203 432.37662109 65.35009766 433.26513672 C66.74297707 435.57838483 67.78905279 437.07610042 69.98681641 438.65185547 C73.06804951 439.22135235 76.0010584 439.33967392 79.13134766 439.40966797 C82.01168863 439.65396501 83.38064787 440.01493035 85.67431641 441.71435547 C88.57544642 445.39957467 89.34266543 448.00756944 88.98681641 452.65185547 C88.0924413 455.97382013 87.22767105 457.80889958 84.34228516 459.76904297 C51.20647238 476.11519917 6.84860527 470.27753064 -27.01318359 459.65185547 C-37.22987569 456.17379619 -47.18625399 452.10472893 -57.01318359 447.65185547 C-55.78599656 456.19582754 -55.78599656 456.19582754 -53.38818359 464.46435547 C-52.02091872 468.36881288 -51.3833578 471.4792596 -52.01318359 475.65185547 C-53.81980842 478.61605842 -55.85810061 481.07431398 -59.01318359 482.65185547 C-66.28591023 483.44655739 -70.33511633 481.33270442 -76.38818359 477.46435547 C-77.25306396 476.92770264 -78.11794434 476.3910498 -79.0090332 475.83813477 C-91.98891466 467.67087219 -104.33413556 458.58750938 -116.01318359 448.65185547 C-117.11954197 447.7307869 -118.22633858 446.81024454 -119.33349609 445.89013672 C-131.40118053 435.79053661 -142.28398742 425.04632952 -152.01318359 412.65185547 C-152.99158203 411.47429687 -152.99158203 411.47429687 -153.98974609 410.27294922 C-183.40373961 374.70662638 -198.50310111 329.9667926 -194.26318359 283.90185547 C-190.16730779 244.33599637 -175.12286225 206.19744013 -148.00146484 176.82763672 C-146.40611539 175.08184173 -144.91382627 173.31897445 -143.45068359 171.46435547 C-123.44036982 148.37553188 -93.19813316 135.15068285 -66.01318359 122.65185547 C-66.65126953 121.53166016 -67.28935547 120.41146484 -67.94677734 119.25732422 C-68.78155085 117.78474624 -69.61617869 116.31208568 -70.45068359 114.83935547 C-70.8715625 114.10136719 -71.29244141 113.36337891 -71.72607422 112.60302734 C-72.33032227 111.5347168 -72.33032227 111.5347168 -72.94677734 110.44482422 C-73.31859131 109.79022217 -73.69040527 109.13562012 -74.07348633 108.46118164 C-76.82796732 103.15760703 -76.56673806 97.4752485 -76.01318359 91.65185547 C-75.01833327 88.72388366 -73.64133437 86.26640416 -72.01318359 83.65185547 C-71.33532073 82.32417924 -70.66570438 80.99216843 -70.01318359 79.65185547 C-70.5371875 78.94609375 -70.5371875 78.94609375 -71.07177734 78.22607422 C-71.52681641 77.60345703 -71.98185547 76.98083984 -72.45068359 76.33935547 C-72.90314453 75.72447266 -73.35560547 75.10958984 -73.82177734 74.47607422 C-77.26852943 69.19858824 -76.77108758 62.66370406 -76.01318359 56.65185547 C-74.23792366 51.65822106 -71.71399557 47.19109433 -69.01318359 42.65185547 C-68.62243652 41.9709082 -68.23168945 41.28996094 -67.82910156 40.58837891 C-57.26463345 22.21941523 -57.26463345 22.21941523 -47.51318359 18.21435547 C-42.49348659 17.40761845 -37.91511722 17.01787759 -33.01318359 18.65185547 C-32.67287109 17.10498047 -32.67287109 17.10498047 -32.32568359 15.52685547 C-30.57278508 9.61231355 -27.21037221 6.0708181 -21.98193359 3.01123047 C-14.93436702 -0.40131583 -7.66917792 -0.09853658 0 0 Z " fill="#030202" transform="translate(242.01318359375,14.34814453125)"/>
<path d="M0 0 C4.172286 1.390762 5.78669043 4.3645393 8.25 7.8125 C8.73944092 8.49320557 9.22888184 9.17391113 9.7331543 9.87524414 C22.95535345 28.48741211 32.45652233 50.00773687 28.61328125 73.34863281 C23.27379076 99.6936789 7.45618385 117.66760321 -11.125 136.0625 C-17.55047159 142.43402578 -23.48040466 148.82242735 -29 156 C-29.84866847 157.03882934 -30.70041166 158.07515193 -31.5546875 159.109375 C-46.14258054 176.92451625 -58.95146487 197.60820077 -65 220 C-65.44472656 221.58748047 -65.44472656 221.58748047 -65.8984375 223.20703125 C-70.8401566 243.04191297 -68.07097962 261.3754148 -58.48828125 279.20703125 C-57 282 -57 282 -56 285 C-64.14139172 284.16716452 -69.00299571 281.47757872 -75 276 C-75.55171875 275.505 -76.1034375 275.01 -76.671875 274.5 C-78.0625 273.1875 -78.0625 273.1875 -80 271 C-80 270.34 -80 269.68 -80 269 C-82.8479823 268.05067257 -84.96207396 267.74133245 -87.9375 267.625 C-88.79214844 267.57601563 -89.64679688 267.52703125 -90.52734375 267.4765625 C-94.12783864 268.23875257 -95.00251401 269.97700058 -97 273 C-108.60239425 293.02605034 -114.1741877 314.84472317 -114.1875 337.875 C-114.19974609 338.98230469 -114.21199219 340.08960938 -114.22460938 341.23046875 C-114.27061568 367.33137663 -103.18046389 389.7453767 -85 408 C-81.82215504 410.94055346 -78.55416409 413.53198845 -75 416 C-73.74509766 416.90105469 -73.74509766 416.90105469 -72.46484375 417.8203125 C-60.03371482 426.27860641 -45.97771084 430.88121618 -31.0625 432.125 C-30.09248047 432.21136719 -29.12246094 432.29773438 -28.12304688 432.38671875 C-25.74915989 432.59721119 -23.37491294 432.80147885 -21 433 C-21.33 433.66 -21.66 434.32 -22 435 C-24.44201694 435.76894998 -26.82587154 436.41437269 -29.3125 437 C-29.97056641 437.165 -30.62863281 437.33 -31.30664062 437.5 C-33.53059262 438.04067589 -35.76029448 438.52875796 -38 439 C-38.86544434 439.18457764 -39.73088867 439.36915527 -40.62255859 439.55932617 C-49.40427325 441.23749939 -58.09746652 441.35812469 -67 441.3125 C-67.77445465 441.31001251 -68.5489093 441.30752502 -69.34683228 441.30496216 C-98.5561918 441.15999041 -126.74655021 434.4893944 -152.64550781 420.57910156 C-153.51788086 420.11213867 -154.39025391 419.64517578 -155.2890625 419.1640625 C-156.0723291 418.72787598 -156.8555957 418.29168945 -157.66259766 417.84228516 C-160.52496233 416.81082932 -162.12440583 417.11534466 -165 418 C-166.79834425 419.79834425 -166.16558536 422.23053042 -166.18994141 424.625 C-166.18873291 425.7696875 -166.18873291 425.7696875 -166.1875 426.9375 C-166.1862915 428.09958984 -166.1862915 428.09958984 -166.18505859 429.28515625 C-166.12336196 435.07254204 -165.45618616 440.39171546 -164 446 C-163.62058697 447.70735864 -163.24544247 449.4156726 -162.875 451.125 C-162.58625 452.40375 -162.2975 453.6825 -162 455 C-182.72771262 447.68433672 -201.86031839 430.49551446 -218 416 C-218.84667236 415.24589844 -218.84667236 415.24589844 -219.71044922 414.4765625 C-236.65916111 399.33846676 -251.09423341 381.99044656 -262 362 C-262.34901367 361.36239746 -262.69802734 360.72479492 -263.05761719 360.06787109 C-268.46248949 350.05764908 -272.53264094 339.82252442 -276 329 C-276.38027344 327.85144531 -276.76054687 326.70289063 -277.15234375 325.51953125 C-290.21166817 283.48329075 -281.96078693 237.52848548 -262 199.078125 C-254.74640686 185.64601833 -245.56966381 173.93518533 -235 163 C-233.78183594 161.70449219 -233.78183594 161.70449219 -232.5390625 160.3828125 C-214.78066822 141.93477184 -191.05147489 128.86616528 -167.6875 118.8125 C-166.97585693 118.49635742 -166.26421387 118.18021484 -165.53100586 117.85449219 C-160.61994765 115.82380435 -160.61994765 115.82380435 -157.7734375 116.6328125 C-156.89558594 117.30957031 -156.89558594 117.30957031 -156 118 C-155.32839844 118.48597656 -154.65679687 118.97195312 -153.96484375 119.47265625 C-152.61040415 120.5348083 -151.25623855 121.59730985 -149.90234375 122.66015625 C-146.00684375 125.4038041 -142.42884373 125.10485178 -137.8125 125.0625 C-136.54019531 125.05347656 -135.26789063 125.04445313 -133.95703125 125.03515625 C-132.98121094 125.02355469 -132.00539062 125.01195312 -131 125 C-130.79246094 125.58007812 -130.58492187 126.16015625 -130.37109375 126.7578125 C-127.71835607 133.48400093 -124.368233 137.11541853 -118.40136719 141.05566406 C-114.91592655 142.42631111 -111.48849355 142.30518751 -107.796875 142.30078125 C-106.60194427 142.30720894 -106.60194427 142.30720894 -105.38287354 142.31376648 C-103.69845528 142.31950175 -102.01401226 142.32001595 -100.32958984 142.31567383 C-97.77267273 142.3125279 -95.21692924 142.33593298 -92.66015625 142.36132812 C-91.01823061 142.36360284 -89.37630189 142.36430381 -87.734375 142.36328125 C-86.97888367 142.372491 -86.22339233 142.38170074 -85.44500732 142.39118958 C-79.26279024 142.33823999 -73.67370446 141.18461218 -68.7578125 137.16796875 C-68.21898437 136.51441406 -67.68015625 135.86085937 -67.125 135.1875 C-66.57070313 134.54167969 -66.01640625 133.89585937 -65.4453125 133.23046875 C-63.73898434 130.59718934 -62.88158736 127.99996475 -62 125 C-61.17757812 125.05800781 -60.35515625 125.11601562 -59.5078125 125.17578125 C-51.7135079 125.49079356 -45.23770766 125.04907197 -39 120 C-34.05387593 114.34987818 -30.41589258 107.82913066 -26.75 101.3125 C-25.95722656 99.92708008 -25.95722656 99.92708008 -25.1484375 98.51367188 C-21.04664922 91.28348923 -17.86061141 85.48364035 -19 77 C-20.51535304 72.26732105 -22.29551818 68.37543043 -26 65 C-25.01809531 63.03182659 -24.03333183 61.06544914 -23.03515625 59.10546875 C-21.45713398 55.99378628 -19.97428976 52.93511224 -18.6875 49.6875 C-17.36963092 46.5074246 -15.59523997 43.79910996 -13.6875 40.9375 C-5.35469856 27.94606484 -2.39659725 15.02928942 0 0 Z " fill="#B497F8" transform="translate(341,31)"/>
<path d="M0 0 C21.81367679 18.10071053 34.53637974 40.59984469 37.81314087 68.94885254 C38.34459566 74.78261694 38.25352083 80.65091914 38.20581055 86.50317383 C38.18760104 88.7997566 38.18530169 91.09593061 38.18554688 93.39257812 C38.16573357 101.56335385 37.89208525 109.68005756 37.36203003 117.83312988 C36.9183567 124.82626178 36.81630602 131.80560881 36.8125 138.8125 C36.80025391 140.01841797 36.78800781 141.22433594 36.77539062 142.46679688 C36.75819797 153.07466446 37.57130145 163.21403593 42.0625 172.9375 C42.36776611 173.61079346 42.67303223 174.28408691 42.98754883 174.9777832 C49.95724558 189.79297757 61.22498221 202.83805403 74 213 C71.69024832 215.30975168 70.78466035 215.40525367 67.640625 215.9296875 C66.77179688 216.08566406 65.90296875 216.24164063 65.0078125 216.40234375 C63.1857439 216.71462463 61.36282866 217.02200966 59.5390625 217.32421875 C51.58006744 218.76810723 46.77547826 221.17788821 42 228 C39.33631727 232.58000125 39.36522482 236.81846304 40 242 C40.88296258 244.75637883 41.9253669 247.33622181 43.125 249.96875 C44 252 44 252 44 254 C43.38511719 254.25394531 42.77023437 254.50789062 42.13671875 254.76953125 C41.32847656 255.11371094 40.52023437 255.45789063 39.6875 255.8125 C38.88699219 256.14894531 38.08648437 256.48539062 37.26171875 256.83203125 C34.24645206 258.38913788 32.51574046 259.96851908 31 263 C30.29596714 268.77306942 32.49322486 272.9640678 35 278 C34.35933594 278.51046875 33.71867188 279.0209375 33.05859375 279.546875 C24.41637711 286.81097363 17.58954939 295.50873795 16 307 C15.80321542 312.75755062 16.00233378 318.50896551 16.16601562 324.265625 C16.29031602 331.99796683 15.86725279 336.6677873 10.6875 342.6875 C4.67227061 347.86339506 -0.39232747 348.53758811 -8.10546875 348.34375 C-29.3107396 346.47207113 -50.48464989 336.67690007 -68 325 C-72.88990708 324.27619276 -76.90674993 324.47362034 -81.375 326.625 C-85.03092647 329.932743 -87.65339965 332.54158919 -88.35205078 337.49707031 C-88.46655256 340.44536278 -88.4468016 343.36296604 -88.375 346.3125 C-88.37306641 347.80426758 -88.37306641 347.80426758 -88.37109375 349.32617188 C-88.22238881 361.90826191 -85.07483131 375.12198499 -78.125 385.75 C-77.42375 386.8225 -76.7225 387.895 -76 389 C-76.33 389.66 -76.66 390.32 -77 391 C-102.91314848 381.02987018 -120.67676934 364.94735122 -132.05859375 339.5234375 C-140.02571391 320.07002655 -139.92780524 295.78726072 -133 276 C-132.62617188 274.74960937 -132.25234375 273.49921875 -131.8671875 272.2109375 C-129.16700527 263.285398 -125.3839674 255.19940876 -121 247 C-117.95966462 248.34248575 -116.08422082 249.7854421 -113.875 252.25 C-107.13417303 259.1937766 -98.6620977 263.9166979 -88.9375 264.375 C-85.66789721 264.27636945 -83.9255724 263.96725186 -80.875 262.625 C-78.42852796 259.19993914 -78.24013145 256.86842363 -78.44140625 252.71484375 C-79.2641536 248.71617655 -81.17405758 245.80820541 -83.40625 242.43359375 C-91.89586158 229.47028979 -92.94642352 213.47945459 -89.87060547 198.57788086 C-81.64111026 163.03700179 -57.72730728 133.25159079 -32.15234375 108.23828125 C-10.67671502 87.21761917 5.94002759 64.55640723 6.375 33.3125 C6.46499933 23.67878184 4.42999726 15.048579 1.57250977 5.89672852 C0.98316951 3.94424049 0.4798646 1.98195367 0 0 Z " fill="#F7CFB3" transform="translate(373,61)"/>
<path d="M0 0 C2.03277412 0.00849619 4.06271855 -0.02026726 6.09521484 -0.05200195 C13.56933955 -0.04829822 18.88351532 0.26058091 25.16943359 4.44604492 C27.59027831 7.24514663 28.1057948 8.88938031 28.52490234 12.55541992 C28.05656829 17.68136191 26.07986495 21.01680924 23.48193359 25.38354492 C22.8293457 26.52339844 22.8293457 26.52339844 22.16357422 27.6862793 C21.28680875 29.20730502 20.39240257 30.71830132 19.48046875 32.21850586 C18.1419121 34.42139122 18.1419121 34.42139122 17.07324219 36.72827148 C15.466866 39.86194072 14.29008978 41.93589262 11.01831055 43.42529297 C8.34363041 44.04744051 5.91478195 44.26720501 3.16943359 44.32104492 C2.23768311 44.33949463 1.30593262 44.35794434 0.34594727 44.37695312 C-4.06445686 44.06358733 -6.82053877 43.42402939 -10.046875 40.30004883 C-14.05693822 34.88384672 -17.02458649 28.95645413 -19.7434082 22.80615234 C-20.84175621 20.26058491 -20.84175621 20.26058491 -22.83056641 17.44604492 C-23.29405964 12.73386375 -23.29981525 10.40259063 -21.20556641 6.13354492 C-15.29849325 -0.5507747 -8.33142076 -0.05311105 0 0 Z " fill="#F8637C" transform="translate(241.83056640625,24.553955078125)"/>
<path d="M0 0 C0.71414062 0.01933594 1.42828125 0.03867187 2.1640625 0.05859375 C6.18151302 0.97423177 8.7694037 2.75870423 11.24365234 6.04272461 C13.09219849 9.18819643 14.93784562 12.33336212 16.75 15.5 C17.40355469 16.59763672 18.05710938 17.69527344 18.73046875 18.82617188 C19.34277344 19.88255859 19.95507812 20.93894531 20.5859375 22.02734375 C21.14587402 22.992771 21.70581055 23.95819824 22.28271484 24.95288086 C23.375 27.5625 23.375 27.5625 23.12866211 29.80810547 C21.97327617 32.49764333 20.0747609 34.22983791 18.04296875 36.29296875 C15.50837297 39.74168104 14.01226502 43.62520507 12.375 47.5625 C8.21250393 47.68672509 4.0510083 47.77712647 -0.11279297 47.8371582 C-1.52704682 47.86219925 -2.94117257 47.89624342 -4.35498047 47.93969727 C-17.63039594 48.33730485 -17.63039594 48.33730485 -21.5 45.16015625 C-25.39026908 40.40458835 -25.9840335 37.80299948 -25.625 31.5625 C-24.45092773 28.56811523 -24.45092773 28.56811523 -22.80859375 25.62109375 C-22.20853516 24.54279297 -21.60847656 23.46449219 -20.99023438 22.35351562 C-20.35408203 21.24685547 -19.71792969 20.14019531 -19.0625 19 C-18.45341797 17.88947266 -17.84433594 16.77894531 -17.21679688 15.63476562 C-8.1000255 -0.48600153 -8.1000255 -0.48600153 0 0 Z " fill="#F8637C" transform="translate(201.625,42.4375)"/>
<path d="M0 0 C7.86655346 3.32143368 11.71815913 12.22220008 15.8125 19.25 C16.42287109 20.24902344 17.03324219 21.24804688 17.66210938 22.27734375 C20.85379927 27.78273895 22.79113095 31.7126256 21.67431641 38.10253906 C20.28468779 42.01281916 17.75023923 45.12488039 14 47 C11.74879258 47.08573394 9.49500697 47.10712188 7.2421875 47.09765625 C6.24761032 47.09553383 6.24761032 47.09553383 5.23294067 47.09336853 C3.11358137 47.08776754 0.99432741 47.075215 -1.125 47.0625 C-2.56119639 47.05748512 -3.99739444 47.05292219 -5.43359375 47.04882812 C-8.95576345 47.03779782 -12.47787145 47.02053259 -16 47 C-16.39904541 46.16782959 -16.79809082 45.33565918 -17.20922852 44.47827148 C-18.00478149 42.84740601 -18.00478149 42.84740601 -18.81640625 41.18359375 C-19.33920166 40.10392334 -19.86199707 39.02425293 -20.40063477 37.91186523 C-21.77111511 35.41671654 -22.82467637 33.89208946 -24.9375 32.0625 C-25.618125 31.381875 -26.29875 30.70125 -27 30 C-26.48220799 23.91417066 -22.7445631 18.99334017 -19.6875 13.875 C-18.81448242 12.37259766 -18.81448242 12.37259766 -17.92382812 10.83984375 C-17.35470703 9.87949219 -16.78558594 8.91914062 -16.19921875 7.9296875 C-15.68190186 7.05554199 -15.16458496 6.18139648 -14.6315918 5.28076172 C-10.60435496 -0.34881281 -6.54004177 -0.85559686 0 0 Z " fill="#F8637C" transform="translate(291,43)"/>
<path d="M0 0 C4.16249607 -0.12422509 8.3239917 -0.21462647 12.48779297 -0.2746582 C13.90204682 -0.29969925 15.31617257 -0.33374342 16.72998047 -0.37719727 C30.00519944 -0.77479896 30.00519944 -0.77479896 33.875 2.3984375 C37.46185031 6.78969174 38.49772654 9.2529175 38 15 C36.89428282 17.86993237 35.4394561 20.50765131 33.9375 23.1875 C33.52991455 23.93273926 33.1223291 24.67797852 32.70239258 25.44580078 C22.10221748 44.63259417 22.10221748 44.63259417 15 47 C9.89675658 47.37801803 7.12993087 47.02401136 3 44 C1.23901367 41.5480957 1.23901367 41.5480957 -0.33203125 38.67578125 C-0.90244141 37.64775391 -1.47285156 36.61972656 -2.06054688 35.56054688 C-2.92776367 33.95276367 -2.92776367 33.95276367 -3.8125 32.3125 C-4.40998047 31.22904297 -5.00746094 30.14558594 -5.62304688 29.02929688 C-7.093532 26.3588959 -8.55191367 23.68259341 -10 21 C-9.61328125 20.57332031 -9.2265625 20.14664063 -8.828125 19.70703125 C-3.85185994 13.73304968 -1.93188113 7.45478836 0 0 Z " fill="#F9637C" transform="translate(275,100)"/>
<path d="M0 0 C0.68383255 0.00424484 1.3676651 0.00848969 2.07221985 0.01286316 C4.25297686 0.02963522 6.43280434 0.06728218 8.61328125 0.10546875 C10.0930856 0.12051761 11.57290445 0.13420567 13.05273438 0.14648438 C16.67738461 0.17953306 20.30149219 0.23130429 23.92578125 0.29296875 C24.03535156 0.88609863 24.14492187 1.47922852 24.2578125 2.09033203 C25.18068195 6.6962384 26.10396337 10.31618734 28.92578125 14.16796875 C29.44140625 14.88726562 29.95703125 15.6065625 30.48828125 16.34765625 C30.96265625 16.98960938 31.43703125 17.6315625 31.92578125 18.29296875 C32.58578125 19.28296875 33.24578125 20.27296875 33.92578125 21.29296875 C31.72012535 25.26484637 29.48242881 29.21773098 27.23828125 33.16796875 C26.29952148 34.85986328 26.29952148 34.85986328 25.34179688 36.5859375 C24.72626953 37.66230469 24.11074219 38.73867187 23.4765625 39.84765625 C22.91622314 40.84265137 22.35588379 41.83764648 21.77856445 42.86279297 C19.65047093 45.65407548 18.27316596 46.37572436 14.92578125 47.29296875 C9.12371069 47.9259219 6.48600106 46.83980638 1.92578125 43.29296875 C-0.1640625 40.48046875 -0.1640625 40.48046875 -2.01171875 37.29296875 C-2.34308838 36.72481445 -2.67445801 36.15666016 -3.01586914 35.57128906 C-3.701479 34.39465412 -4.38238592 33.21526642 -5.05859375 32.03320312 C-6.0342556 30.36144408 -7.06885327 28.72450662 -8.10546875 27.08984375 C-15.0235927 16.03218662 -15.0235927 16.03218662 -14.07421875 9.29296875 C-12.32421875 5.91796875 -12.32421875 5.91796875 -10.07421875 3.29296875 C-9.67871826 2.74987061 -9.28321777 2.20677246 -8.87573242 1.6472168 C-6.04301893 -0.4822129 -3.48827941 -0.04271363 0 0 Z " fill="#F9637C" transform="translate(190.07421875,99.70703125)"/>
<path d="M0 0 C1.12631836 0.24339111 1.12631836 0.24339111 2.27539062 0.49169922 C5.71820218 1.13398718 8.99919777 1.1320016 12.5 1.125 C13.7890625 1.12757812 15.078125 1.13015625 16.40625 1.1328125 C19.43726773 1.02079663 22.05392539 0.63663029 25 0 C27.22654574 3.45557381 29.39849302 6.94248356 31.5625 10.4375 C32.19091797 11.41138672 32.81933594 12.38527344 33.46679688 13.38867188 C36.80671594 18.8456981 38.82616272 22.66409969 37.67700195 29.09594727 C36.45729464 32.5263466 34.63407733 34.49135492 32 37 C26.49970838 38.83343054 20.39864064 38.34597741 14.63183594 38.4050293 C13.05088419 38.42658184 11.47005089 38.46065323 9.88964844 38.50756836 C-4.93351538 38.94308792 -4.93351538 38.94308792 -9.515625 35.16015625 C-12.46334429 31.99436087 -13.50530351 28.50841323 -13.44140625 24.17138672 C-12.42163464 19.15487746 -9.18016749 14.84463871 -6.5 10.5625 C-5.87996094 9.54478516 -5.25992188 8.52707031 -4.62109375 7.47851562 C-3.09428716 4.97690175 -1.55381449 2.48489522 0 0 Z " fill="#F9647C" transform="translate(232,126)"/>
<path d="M0 0 C5.19077708 3.08078563 8.82377195 7.13595281 11.859375 12.33984375 C13.42210338 18.59075725 13.43030641 24.10796943 10.421875 29.90234375 C7.23143099 35.01789987 3.19423499 38.79091845 -2.453125 41.08984375 C-9.58928323 41.98658321 -15.90433517 41.9886235 -21.8046875 37.58203125 C-26.42264346 33.40179623 -29.98889785 29.21075246 -30.70703125 22.8359375 C-30.99648417 16.72007751 -30.11707751 12.06769176 -26.453125 7.08984375 C-19.21573241 -0.46659863 -10.37568333 -3.84957678 0 0 Z " fill="#F1C44A" transform="translate(253.453125,76.91015625)"/>
<path d="M0 0 C1.9375 1.5625 1.9375 1.5625 3 4 C3.1875 7.75 3.1875 7.75 3 11 C4.8871875 10.87625 4.8871875 10.87625 6.8125 10.75 C10.69727609 10.7706637 10.69727609 10.7706637 13.0625 12.5625 C14.39274773 16.0211441 13.85607025 18.4440159 13 22 C11 24 11 24 9.0546875 24.1953125 C7.03645833 24.13020833 5.01822917 24.06510417 3 24 C3.0928125 25.60875 3.0928125 25.60875 3.1875 27.25 C3 31 3 31 2 33.4375 C-0.71070476 35.5552381 -2.74871362 35.57130492 -6.125 35.37890625 C-8 35 -8 35 -10 33.4375 C-11.32761013 30.2014503 -11.19966912 27.46093134 -11 24 C-12.8871875 24.12375 -12.8871875 24.12375 -14.8125 24.25 C-18.69727609 24.2293363 -18.69727609 24.2293363 -21.0625 22.4375 C-22.40411569 18.9492992 -21.92678615 16.57474656 -21 13 C-17.3558226 10.5705484 -15.28758728 10.83820425 -11 11 C-11.0825 9.9275 -11.165 8.855 -11.25 7.75 C-11 4 -11 4 -9.4375 1.5625 C-6.07240983 -0.59460908 -3.91795996 -0.56988508 0 0 Z " fill="#6FD6F9" transform="translate(367,477)"/>
<path d="M0 0 C0.66 0 1.32 0 2 0 C2.20753906 0.58007812 2.41507813 1.16015625 2.62890625 1.7578125 C5.57870569 9.23722028 9.53467116 13.63813557 16.9375 16.875 C17.948125 17.24625 18.95875 17.6175 20 18 C20 18.66 20 19.32 20 20 C19.33613281 20.21914063 18.67226562 20.43828125 17.98828125 20.6640625 C11.1489658 23.12022542 7.34823175 25.25580821 4.0390625 31.94140625 C3.30630784 33.6052299 2.64579708 35.30053401 2 37 C1.34 37 0.68 37 0 37 C-0.81567174 35.56429734 -1.62742093 34.12636566 -2.4375 32.6875 C-2.88996094 31.88699219 -3.34242187 31.08648437 -3.80859375 30.26171875 C-5 28 -5 28 -6 25 C-9.60132709 22.69515066 -14.00536651 21.46469895 -18 20 C-18 19.34 -18 18.68 -18 18 C-17.33613281 17.70867188 -16.67226562 17.41734375 -15.98828125 17.1171875 C-7.31086639 13.08884016 -3.40367489 8.95703918 0 0 Z " fill="#F5C84C" transform="translate(127,30)"/>
<path d="M0 0 C3 1 3 1 4.6875 4.3125 C7.02343781 8.76452265 10.45500204 10.2239207 15 12 C14 14 14 14 11.1875 15.3125 C7.71385004 17.15149116 6.24659417 18.82378065 4 22 C3.00270658 23.33535898 2.00316209 24.6690441 1 26 C0.64808594 25.38511719 0.29617188 24.77023438 -0.06640625 24.13671875 C-3.45164707 18.59482321 -5.73353153 15.87994054 -12 14 C-12 13.34 -12 12.68 -12 12 C-10.35546875 10.8515625 -10.35546875 10.8515625 -8.1875 9.625 C-3.8257467 7.00486551 -1.63097275 4.89291826 0 0 Z " fill="#87D047" transform="translate(450,152)"/>
<path d="M0 0 C2.6923481 2.18753283 2.93936827 3.58423955 3.4375 7 C3 10 3 10 1.375 12.375 C-1.69477548 14.4753727 -3.34556561 14.53293835 -7 14 C-9.375 13 -9.375 13 -11 11 C-11.65964122 7.44238446 -11.63041883 4.26083766 -10 1 C-6.73916234 -0.63041883 -3.55761554 -0.65964122 0 0 Z " fill="#F5C84C" transform="translate(411,445)"/>
<path d="M0 0 C2.6923481 2.18753283 2.93936827 3.58423955 3.4375 7 C3 10 3 10 1.375 12.375 C-1.69477548 14.4753727 -3.34556561 14.53293835 -7 14 C-9.375 13 -9.375 13 -11 11 C-11.65964122 7.44238446 -11.63041883 4.26083766 -10 1 C-6.73916234 -0.63041883 -3.55761554 -0.65964122 0 0 Z " fill="#FC657D" transform="translate(189,0)"/>
</svg>
